<svg xmlns="http://www.w3.org/2000/svg" viewBox="0 0 166.8 273.97"><defs><style>.cls-1{fill:#5372fe;}.cls-2{fill:#5674fe;}.cls-3{fill:#5876fe;}.cls-4{fill:#5775fe;}.cls-5{fill:#5976fe;}.cls-6{fill:#8b9ffe;}.cls-7{fill:#889dfe;}</style></defs><title>1Recurso 5logo</title><g id="Capa_2" data-name="Capa 2"><g id="Capa_1-2" data-name="Capa 1"><path class="cls-1" d="M.08,161c7.45,3.67,14.66,6.8,22.43,8,20.13,3.17,40.1,3.3,59.18-5.17,14.77-6.56,25.84-16.81,28.93-33.36,2.83-15.16-.6-28.78-12.33-39.6-1.4-1.29-3-2.27-1-4.46,15.57-16.76,12.49-49.06-14.26-63.12A74.15,74.15,0,0,0,52.26,14.9C37.57,14.12,23,15,9.34,21.19c-3,1.38-5.92,3-9.26,4.74C.08,17.7.1,9.86.07,2,.06.56.7,0,2.1.07c.75,0,1.5,0,2.25,0Q83.46.07,162.59,0c3.2,0,4.21.64,4.21,4.06q-.18,100.13,0,200.24c0,3.41-1,4.08-4.19,4.08q-79.32-.16-158.62,0c-3.06,0-4-.69-4-3.88.19-13.25.08-26.5.08-39.75Zm143.23,34.71c1.3,1.43,2.88.82,4.41.62l1.69.07c1.7-.05,4.29,1.26,4.46-1.65.27-4.72.56-9.5-.25-14.2-.39-2.25-1.83-4.14-4.39-3.65-2.93.57-5.82.12-8.72.3-2.47.16-3.27,1.07-3.2,3.43.13,4.12,0,8.25,0,12.37,0,3.93,1.23,4.52,5.13,2.6Zm-24-9.89c.15,3.09-.21,5.34.67,7.5,1.22,3,3.51,4.32,6.51,3.6,2.05-.49,3.78-.91,5.95-.23,2.49.78,4.46-1.45,3.21-3.66-1.51-2.63-.93-5.23-1.15-7.86-.19-2.33.81-5-.5-6.94s-3.95-.38-5.95-.8c-.6-.13-1.18-.39-1.78-.46-3.63-.4-5.72,1-6.55,4.54A26.33,26.33,0,0,0,119.29,185.82Zm-17.92.79c0,.87,0,1.75,0,2.62.31,6.62,6.57,10,12.34,6.72,1.14-.66,2.33-1.41,1.83-2.86a3,3,0,0,0-3.6-2c-1.68.3-4.29,1.94-4.32-1.07,0-2,2.87-.62,4.41-1,1.36-.34,3.1.61,4.07-1.08,2.17-3.77-1-10.28-5.39-11C104.43,176,101.37,179.11,101.37,186.61Zm-13.69.54c0,1.75,0,3.5,0,5.24,0,2-.68,4.35,2.9,4.28s2.64-2.58,2.7-4.48c.11-3.49.11-7,0-10.48-.06-2.15.15-3.65,2.95-3.35,2.07.21,2.28-1.39,2.29-3s-.53-2.72-2.28-2.74q-5.81-.06-11.61,0c-1.9,0-2.07,1.4-2,2.89s.07,3.07,2,2.87c3.37-.37,3.19,1.71,3.11,3.93C87.63,183.9,87.68,185.53,87.68,187.15Z"/><path class="cls-2" d="M3.23,250.35c0-6.49,0-13,0-19.48,0-1.26-.52-3,1.75-2.93,8.84.31,17.74-.95,26.51.88,11.7,2.45,17.63,10.36,17.22,22.67-.38,11.41-7.29,19.05-18.75,20.68-8.2,1.16-16.46.41-24.69.67-2.11.06-2.07-1.17-2.06-2.64C3.24,263.59,3.23,257,3.23,250.35Zm15.37.06c0,2.62,0,5.23,0,7.84,0,1.63.38,2.6,2.27,2.53,3.87-.14,8,.17,10.3-3.75a13.19,13.19,0,0,0,.35-12.88c-1.64-3.38-7.55-5.61-11.48-4-3.1,1.24-.84,4.37-1.37,6.59A15.83,15.83,0,0,0,18.6,250.41Z"/><path class="cls-2" d="M76.43,260.2c-2.75,0-5.49,0-8.24,0-.67,0-1.62-.32-1.86.68-.21.82.42,1.42,1,1.87,3.59,2.84,7.45,2.17,11.31.72,2.51-.94,8.09,2,8.72,4.59.18.77-.28,1.17-.78,1.52-7.25,5-15.19,5.36-23.23,2.79-6.69-2.14-10.86-6.83-11.65-14.1-.89-8.23,3.42-15.23,11.05-17.89,8.56-3,18.41-.23,22.43,6.28,2.2,3.57,2.55,7.45,2,11.52-.22,1.6-1,2.06-2.5,2C81.92,260.14,79.17,260.2,76.43,260.2Zm-6.68-6.37c.85-1.21,3.73,1.4,3.61-1.91-.07-1.93-1.14-3.68-3.48-3.64a3.68,3.68,0,0,0-3.82,3.81C66,254.65,68.28,253.17,69.75,253.83Z"/><path class="cls-3" d="M148.56,273.6a22.65,22.65,0,0,1-9.94-1.75,10.87,10.87,0,0,1-5.85-5.51c-1.15-2.47-1.07-4,2.3-3.89a39.91,39.91,0,0,0,6-.48,2.76,2.76,0,0,1,3.11,1.33c1.67,2.6,4.4,2.45,7.06,2.05,1-.15,2-.61,2.12-1.78s-.76-1.78-1.8-2.11a13.75,13.75,0,0,0-2.15-.6c-1.85-.27-3.71-.45-5.57-.66-7-.78-10.54-3.58-10.82-8.65-.32-5.52,3.07-9.75,9.44-11.24,5.19-1.21,10.39-1.14,15.34,1.26a11.63,11.63,0,0,1,3.87,2.9c1.06,1.24,2.32,2.69,1.78,4.29s-2.38.83-3.65,1c-3.15.32-6.55,1.92-9.07-1.73-.4-.59-1.84-.58-2.82-.63-1.42-.09-3,.12-3.18,1.83s1.44,1.81,2.65,2.07c3.64.79,7.41,1,11,2.16,4.87,1.65,7.21,4.2,7.39,8.33.19,4.51-2.09,7.59-6,9.52A23.93,23.93,0,0,1,148.56,273.6Z"/><path class="cls-2" d="M110.17,261.47c1.74-6.23,3.41-11.8,4.81-17.44.64-2.57,1.7-3.79,4.54-3.49a70.57,70.57,0,0,0,8.23.06c1.7,0,2.22.54,1.57,2.26Q124,257,118.75,271.18a2.12,2.12,0,0,1-2.49,1.64c-.37,0-.74,0-1.12,0-4.48-.06-9.82,1.36-13.21-.59s-3.54-7.87-5.15-12c-2.17-5.56-4.09-11.21-6.21-16.79-.79-2.08-.43-2.78,2-2.86,11.09-.37,11-.42,14.12,10.42C107.59,254.26,108,257.77,110.17,261.47Z"/><path class="cls-4" d="M44,129.83c-6.8,0-10.79-3.73-10.81-10.12,0-6,4.19-10,10.62-10.12s11,4.07,11,10.15C55,126,50.9,129.81,44,129.83Z"/><path class="cls-5" d="M37.5,63.16c0-4.7,2.32-7.48,6.44-7.56,3.87-.08,6.66,3,6.8,7.4.13,4.61-2.65,7.75-6.8,7.68S37.55,67.88,37.5,63.16Z"/><path class="cls-6" d="M147.72,196.33V183c1.68,4.4.19,9,1.69,13.42Z"/><path class="cls-7" d="M142.48,195.6V183h.83v12.75Z"/><path class="cls-3" d="M128.43,186.49c0,1.39,0,2.26,0,3.13s-.52,1.67-1.61,1.65-1.5-.76-1.58-1.71a13.42,13.42,0,0,1-.06-2.61c.19-1.6-.77-4.28,1.52-4.35C129.64,182.51,127.79,185.52,128.43,186.49Z"/></g></g></svg>