<svg xmlns="http://www.w3.org/2000/svg" viewBox="0 0 1000 1195"><defs><style>.cls-1{fill:#7c7c7c;stroke:#fff;stroke-linecap:round;stroke-linejoin:round;stroke-width:2px;}</style></defs><title>2Recurso 1colombia</title><g id="Capa_2" data-name="Capa 2"><g id="Capa_1-2" data-name="Capa 1"><path id="COL99" class="cls-1" d="M10.5,640.1l.2.9-.6.5H9.7l-.8.7-.4.1-.3-.3.5-.8.5-.3v-.6l.4-.2Z"/><path id="COL1283" class="cls-1" d="M827.9,992.2l.2,3-1.1,6.2v3.1l-1.2,4.6v1.3l-1,3.4-6.6,36.7-4,21.7-3.9,21.7-4,21.7-2,10.8-7.8,43.5-4,21.7-1.2,2.4-1.8-3.8-1.2-1.7-1.4-1.6-2-1.6-6.8-3.5-1.8-1.8-.7-2.2-.4-2.4-.8-2.4-1.6-2.3-2.2-2.3-2.5-1.9-2.6-.9-1.9.2-1.5.9-2.6,2.4-1.7.8H756l-3.6-.9-.7-.5-9.2-4.8-2.9-.3,18.1-28.3,10.5-16.5,5.3-8.2,10.6-16.5,1.5-2.4-1.2-.8-.5-.8-.5-1-.8-3-.7-.5-1.4.9-.4.7-.3.7-.4.5-.5.2-.7-.4-.1-.6v-.6l-.2-.7-1.3-1.1-1.1.4-1.2.5-1.2-.5-.8-1.2-.9-2.8-.8-1.3-1.5-.7-1.3.4-1.4.8-1.6.5-.8-.7-.3-.6v-.6l.3-.3,1.1-.5.4-.2.3-1.4-.9-.7-1.4-.1h-1.4l-.8.2-1.6.6-.7.1-.7-.4-.4-.6-.3-.7-.4-.7-.8-.7-1.2-.6-1.2-.4-1.2-.1-1-.5-.8-1-.9-.6-1.2.8-.2.6v1.4l-.5.3h-2.8l-.4-.4-.1-.8v-.9l-.1-.7-.4-.8-2.2-1.7-.2-.1v-2l-.2-.5-.3-.4-1.8-.2-1.2-.3-2.5-.9-2.3-1.5-3.5-3.7-2-1.3-1.4.7-1.7-.4-2.9-1.2h-1.9l-.7.9.2,1.6.6,1.7-.6.3-.8.1-.9-.2-1.7-1h-.8l-1.9.3-1.5.7-1.3,3.2-1.9,1-1.3,1-.7.1-.7-.2-.8-.6-.8-.2-1,.4-1.4.8-1.2.3-.5-1-4.9,2.4-2.2.5-.8-1.5.3-.5.9-.8.2-.6-.3-.7-1.5-2-1.2-2.1-.7-.2-.9.9-.7,2.6-.5.7-1.1-.5-.5-1v-2.8l-.4-1.3-.7-.6-3.9-.8-1.4-.7-1.2-1-1.4-.8-1.5-.2-2.3,1.1-1.3.2-.6-1.1.1-2.4-.5-.4-1.5.7-3.9,2.5h-.6l-.4.7-2.4,3.8-3.2,2.4-.5.5-.3,1.5-.8.9-1.2.3-4.2-.6h-2.2l-1.9.7-1.8,1.6-3,3.5-1,.3-4.3-1h-.7l-1.8.4-.3.3.1,1.3-.2.5-.6.2-1.6.1-2.7.8-1.5.1-1.2-.3-1.2-.6-.9-.8-.3-.9-.6-.5-6.9-1.1-1.3-.4-3-2.4-1.2-.7-1.3-.2-.8,1.1-1.8,3.7-.8.8-1.1.4-.4-.2-.3-1.8-.2-.6-.6-1.1-.8.4-.5.5-.4.6-.1.8-1.8-1.2-1.1-.4-1.7.8-1.9.7-.8.8-1,.3-2.8.6h-.6l-.6-.5-.6-1.1-1.1-3.1-1-.8-.2-.4-4.7-2.6-.1.7-.8,1.6-.9.8-.4-1.5-.6-.6-2.9-.7-1.1-.7-.2-.5-.3-2.1-.3-.3-.9-.7-.3-.8-.7-1-.1-.6.1-.7.2-.5.6-.7,2.5-2.2.6-1.5,2-3.2-.9-.9-.6-1.4-.3-1.5-.5-1.3-1.2-1.7-.4-.9-.3-1.1.1-.9.7-1.7.2-.6-.4-1.1-1.6-1.9-.4-.9.5-2.5-.4-.8-1.2-.6-.7-.5-1.8-2H570l-.2,1.8-.5.2-2.2-.6-1,.2-1.1,1-.5.8-.7-.1-1.6-1.5-.9-.5-.8-.2-.7.1-1-.1h-1l-.5-1.4-4.3-2.6-1.4-1.7.2-2.6.8-2.2.5-1.1,1.7-.9v-1.3l-.7-2.8-.1-1.6-.1-.7-.5-.7-1.4-1-.8-1.2-2.5-1.2-.6-1,1.1-1.3.3-.7-1.1-.5-.7-1-.1-.4-.1-1.5-.3-1-.3-.1-.8.1h-.3l-.2-1.1-.5-1-.2-.8-.4-.6-1.5-.4-1.3-1-.8-.2-1.5-.3-1.3-.7-.9-1-.6-1.2-1,.4-1.1,1.7-1.1.6h-.8l-1.1-.2-1.8-.7-.9-.6-.7-.7-1.2-1.9-1-2.7-.4-.6-1.1-.4-2.1.5-.9-.5-.1-.6.6-1.1-.1-.6-.5-.5-.4.2-.4.7-.8.4-.3.3-.4.1-.8-.3-.6-.5-.3-.6-1.6-4.6-.7-.8-1.1,2-1.8.1-4.1-1.6-4-.7-1.8-1-1.5-2-1-3-.6-.9-1.7-1.1-.4-.7.4-.7.9-.2,1.1.2h.9l.4-.8-.4-.8-.7-.7-.4-.8.6-1.1-.6-.2h-1.1l-.7-.2-.4-.3-2.3-2.6-.5-.9.1-1.3.3-.6.8-.7.2-.5-3.2-7-.2-.6,37.1-11.5,5.1,1h1.2l.9-.4,1.9-1h1l1.2.5,1.9,1.2.4.2.8.1.4.4.1.4-.3,1.3.1.5.5.4.5.1,1.6-.1.7.1.6.5.8,2,.5.9.9.5,5,.8,3-.2,3.1.1,1.5-.2,1.1-.7.6-.5.6-.2,1.2.4,2.2,1.7,2.5,2.5,2.6,2,2.7.2,2.3-.5h1.8l1.6-.5,1.5-1.6,4.1-2.9,7.6,5.1,4.6-.9,2.5-1.6,1.9-.4,2,.8,7.1,5.8,1.7,1.1,1.7.8,1-.1.7-.9.9-1.5,3.2-3.6,2.1-1.9,1.7-.7,2.1,1.3,2.1,2.1,2.3,1.5,3-.5,1.8-1.5.8-.8.3-1.7-.1-1.9v-2.4l.4-2.1,1.2-1.8,1.5-1.5,1.2-1.6,2.1-3.5,1-1.1,3.6-1.9,2.6-2.5,1.6-.8,2.1-.3,9.2.1,2.6-.5,2.1-.9,1.4-1.4,1-2.1.8-2.9,2.5-2.9,4.3-2.9,12.4-5.5,3.5-1.9,4.5-4.5,1.5,1.5,1,.5,1.1.4,1.1.1h1.1l2.8-1.3h1.4l1,1.4.6,2.8.6,1.1,1.5.6,1.3.4,2.6,1.3,1.2.4.8-.1,1.4-.7h.9l.8.5.9,1,2,2.9.5,1,.3,1v1.2l-.3,1.2-.4.8.1.8,2.5,3.2,1.6,4.5,1.6,3.5.4.6.6.2,2.4.1,1.1-.2.8-.6.3-1.1.7-1.1,1.3-.1,1.5.5,1.2.6,1.9,1.6.7.3.8.1,1.5-.3h.8l.9.5,1.4,1.7.9.4,3.4-.3,1.1.3,1.1.7,1,1.2.8,1.3.5,1.2v1.1l-.2,1,.3.6,2.9-.1,3.5.7,1.3-.2.5-.7-.2-1.8.7-.9,1.4-.7,1.2-.4h1.3l1.5.4,1.5.9.3.8-.6.8-4.2,3.9-1.4,1.9.1,1.5.7.1,1-.4,1.2-.1,1,.9.3,1.2v1.3l-.4,2.6V953l.2,1.1.7,2.1-.1,1-.9.7-1,.6-.7.9.6,2.4,2.1,2.2,1.4,2.1-1.5,2.3-2,1.3-.8.8-.2,1.1.4,1.3.9,1.4,1.2,1,1.2-.3,1.7-1.5.9-.4.4.9-.2.9-.8,1.8-.1.9.6.7,3.3,2.6,1.3.3,1.3-.2,1.2-.7.6-1.3-.8-1.8-1.7-1.3-1-1.6,1.7-2.1,1.1-.6h.8l1.3.7.6.2h.6l.9-.5.6-.8.7-.5,2,1,1-.2,1-.6,1.1-.4,1.5-.1.4.6-.3.8-.5.9-1.2,1-.4.5-.1.3v1.4l-.9,2.1v.9l1.1.9,1.3.1,1.1-.6,1-.9,1.1-.6h1.6l3,1.2h1.4l.8-.6.5-1.8.6-.7,1-.4,1,.2,1,.6,2.7,2.4.9,1.1.3,1.1-.3,1.2-.5,1.1-.3,1.1.2,1.3.5,1.3.5.4.8-.1,3.4-2,1,.1,4.8,2.4.9.1,1,.4.4.4.3.9,2.3,2.7Z"/><path id="COL1314" class="cls-1" d="M464,356.2l15.8,12.9,1.2,2.1,1.3,1.8.7.8.7,1.9.7,6.8.6,2,.8,1.3.9.5.8.5.3.9-.2,1.2-1,1.9-1.2,1.2-1.5.9-1.5,1.1-.8,1.7-.9,5.6v2.1l.3,1.8,1.3,2.9,2.3,2.8,1.4,1.3,1.3.4,1.3-.3,1.5-1.3.9-1.1,1.2-2.9.7-1.2,2.7-2.1,1.2,3.8-.4,1.6-.4,1.1-.6.9-1.4,1.5-.5.9-.3,1.5.3,1.6v2.7l-.7,2.3.1,1.7.5,2.1,1.1,2.7.6,2.1.7,1.9.2,1.5.3,1.5.7,1,1.6.7,1.3.2,2-.2,1.2.3,21.7-20.7-.5,3.2.7,8.7.3,1.4.7,1,.8,1,.5,1,.4,2.8-.9,1.8-1.6,1.2-5.5,2.7-.7.5-.4,1-2.8,3-2.1,4.1-.9,1.2-12.4,9.2-2.5,1.2-2.7.4-1.1.3-.4,1-.1.5-.8,2-.2.5.2,6.2.2.9,1.1,1.2.4.7.1.8-.3.8-.5.6-.7.2-.8-.3-3.1,4.7-1.7,1.9-2.3,1.6-1.9,1.3-1.3,1.5-.8,1.7-.6,2.9-.9,1.6-.2.9v1l.4.7.9,1.1.5,1.1.1,1-.1,2.8.2,1.4-.2.6-.4.2-1.1.5-.3.3-.1,1.2,1,2.8-.3.6-.8.3-.9.9-.8,1.1-.5,1-.6,4.2-.9,1.8-.6.4-.8-.7-.4-.2-.6.2-.9.1-.4.4-.1.5-.5,1.2-.3,1.4-.9,1.6-2.2.7-.7-.3-2.8-1.9-1.2-1.1-1.3-.4-4.1.8-4.3,1.3-.9,1.4-.7.8-1.3.7-1.3.5-2.5.2-.2,1.8.1,2.5-.5,1-2.3,2.6v.5l-.6.4-1.7.1-.8.3-1,.5-1.4.9-1.1.9-.6,1.3-.8,1-.8,1.3-.7.2-1.1-2.7-1.8.7.3-2.5-.1-1.2-1.6-4.6-.5-.8-.9-.4-.5-.3-.7-.8-.1-.6.1-.7.1-1.3-.2-.7-.3-.4-1.5-.5-.6-.5-.7-.3-3,1.6h-1.1l-.4-.2-2.6-1-.6-.6-.3-1-.8-.6-.8-.2-2.2-.8h-.8v2.3l.4.9,1,.3-.4,2.1v1l1.1,3.7.1,1.4-.1,1.3-.3,1.6-1.7-.5-1.6.1-1.4-.2-1.5.1-.6-.2-.7-.7-1.8-1.3-1,.1-4.4,3.1-3.5,1.5-1.5.2-3.1-.5-2.3-.9-1.5-.9-1.3-1.2-.8-1.6-2-1-2.6-2.7-.4-.5-.7-1.3.1-1.1.8-2.9-.2-1.7-.5-.9-1.9-3.2-.5-1.5-.3-1.8.2-1.6,1.8-4.7-.4-3-1.7-.9h-1.8l-1.7-.7-1.9-2.4-1.6-4.2-.5-4.2-.7-1.1-1.2-.9-2.4-.3h-2.5l-2.6.3-2.2.5-3.2.3-3.8.3-3,.7-5.3.2-1.7-.2-1.8-.5-.9-.7-.6-.8-.2-1.4-.7-1.2-1.9-2-.1-.4-.3-1.5-.3-.2-1.1-.3-.4-.4-.3-1.1.2-1.3.4-1.2.6-.6-.9-.4.7-1.1-.1-.8-.6-.7-.5-1.1.9-.3.5-.7-1.1-.3-.2-.6.4-.9.7-.8-.1-.5-1.6-2-.9.3-.6-.6-.5-.9-.7-.6v-1.2l-.3-1-.6-.7-1-.4-.8.4-.4-.8.2-1.4.6-1h.4l.4.3h.4l.2-1-.3-.3-1.5-.2-.6-.2-.4-.7v-.7l.4-1.1-.3-.4-.6.4-.5.7.1.4-.8-.1-.4-.3-.2-.5v-.7l-.2-.5-.5-.1-1.2-.1,1.2-1.4.2-.4-.2-.7-1-.7-.2-.8v-2.5l-.2-.6,3-1,.9-.1,2.1-1.3,3.2.3.6-.3.3-.4.8-.8.6-.8.3-1-.3-2.5-.3-1.1-.4-.8-.8-.5-.2-.2-.6-1.4.3-1,1-.6,1.3-.5,2-.3,4.3-.4h1.4l5.5,1.4,1.2.4.9.5,1.6.1,2.2-3.7.3-.6.2-1.3-.2-7.6-1.4-4.2-.9-1.3-2.9-2.5-.8-.6-.9-.3-2.3-.3-1.8-1.1-1.3-1.1-5.4-6.7-7-7.6-7-5-8.6-7.9-.7-.8-.5-1,.5-.4.4-.1-.2-.7-.3-.1v-2.8l1.8.3,1.5-1,1.4-1.4,1-.7.9-1,1.3-6.9.4-1,.5-.7,1.3-.8.2-1.3.5-.7.4-1.4-.5-5.6-.3-1.3-.5-1.1-.8-3.3v-.2l.6.1.4-.9.5.1.4.6v1.2H321l-.5-.5v1.7l.5,1.2.8.5,1-.6v1.4l.9-1,.3.7-.6,1.1-.1,1.1-1.4-.5.4,2.4,1.7,1,1.5-.2.1-1.3h4.2L329,361l-.2.7v.8h.5l.9-.5v.5l-2.3.9v.4l1,.3.5.6-.1.6-.7-.6-1.1.1.5.6,1.3.9.5.8-1.7-.8-1.8-.5-1.6.2-1,1.1v.3l.5.1-1.3,3.9,1.8,2.4,3.6,1.1,4.2.1.8-.1.8-.3.7-.4.5-.6.2-.6-.2-1.5.1-.5.6-.7.2-.6.4-4.2-.1-1.9-.8-1.6-.3.9.3.9h-.4l-.4-1.1-.2-1.5v-1.6l.7-2.3-.2-1.4-.9-2.3-.4-2.2v-9.5l-.3-1.2-.9-.6-.9-.4-.4-.9-.3-1.2-.4-1.2-1.4-1.4-2.1-1.5-2.4-1.1-2-.3v.6l-.8-.8,1.1-1.7,1.7-2,.8-1.4,6.7-2.1,1.6-.1,6.6-1.9.8-.5.4-.5.1-1.6.3-.6.6-.4v-.4h-.5v-.5l1.3-.2,4.5-1.7.9-.7,3-3,3.5-2.4.4-.4.4.3,1.8,1.8.5,1.4,1.1,5.4,1.6,2.3,1.2,2.1,1,1,3.6,1.3,1.1,1,2.2,3.3.9,5.6.1,2.9-.2,2.9-3.6,4.2-3.2,4.6-3.5,7-2,3.1-1.3,2.3.2,6.3-.2,1.8-.9,3.2-2.4,3.9-2.5,9.1v6.5l.6,3,4.2,9.2,1.8,5.7,25.3.7,4.4.1,6.6.3.7-.2.8-.5.1-.7.3-1,4.7-6.7,1.9-1.4,2.4-.8,4-.8,2.5-1,1.3-.8,1.6-2.5,1.3-5.6.8-1.2,1.2-1.1,1.8-1.1,2.1-4.7,1.1-1.1,3.5-2.4,1.9-1.6,2.5-3.2,4.1-4.4,2.3-3.5,1-.4,1.7-.5,5-.5,1.5.1,1.2.3.9.2.9-.3,1-.6,1-.2,1.4-.1,3.7.2,2-2.7,1.8-2.8,1.1-1.2,1.1-.8,1.2-.3Z"/><path id="COL1315" class="cls-1" d="M655,435.9l2,.5-.6,1.9-.7,1.4-2.5,6.5-1.4,2.5-.8,2.9-1.3,1.7-1.5.7-.5,1.2L646.1,468l-.7,2.4-.6,1-.8,1-1.2.5-.9.1-.8.2-.6.5-.6.9-.7.7-.5.4-.6-.1-.7-.6-.6-.1-.6.4-.6.6-.4.7v.9l-.5,1.6-1.8,1.6-2.2,1.2-2.8,4.5-1.3,4.3-.1.7.2.5,1,.5.4.5.4,1.6.4.9.3.9.4.8,2,2.1-.2,1.3-.9,1.8-.6,3.4-1.5,5-.3.5-1.5.3-1.1.4-.6.6-.4.5v1.4l6.4,3.4,2.7,2,.5,1.6,1.4,1,1.5,2.2,1.6,1.3-1,.9-.5.2-.5.5-.3.7-.3,1.2-.5,1.7-.9.8-.6,1.3-.9,4.7-.5.4-.6-.1-.8-.6-1.5-1.1-.5-.5-.6-1.1-.4-.6-.4-.3h-.7l-.8.4-1.6,1.8-7.4,8-1.5,2.5-.9,1.5-2.8,1.6-3.9,3.5-1.3-.1-1.9-2.5-1.3-1-1.6-2.4-.5-.6-1.4-.6-1.5,1.3-.8.4-1,.9-1.1,1.3-3.8,5.2-.5.6.2,2.4-.5.6-.4.9-.3,1.5v1l.3.9.7,1.2,1.6,1.3.5.9-1,1.9-.4,1.5-.4.8-1.1,1-1.6,1.8-2.5-1.1-1,.1-.3.6-1.1,4.4-.2,3.1-1.1,2.9-.2,1.3,1.3,4-.2,1.2h-1l-.5.7v.8l-1,1.7-.2.6-.5.5-.9.5-2.8.2-2.7-1.1-1.5-.1-.5-1.2-.2-1.9-.6-.4-.7-.2-1.3-.1-1.2.4-.8-.1-.5-.5-.4-.8-1.3-2.3-2.6-1-.1-.4.2-1.1-.4-.7-1-1.1-1-1.6-.6-.5-2-.6-5.5-.1-1.5-2.1v-.9l2.1-3.9-.3-2.2,2.7-2,.1-.9-1-1.9-.2-1.4.3-1-.2-.8-1.7-2.8-.5-1.9.3-1.7-1.1-1.8-.3-.5-1.1-.9-1.8-1.4-.3-.8-.3-.9v-.7l.4-1,.4-.8-.5-.7V546l-.7-.5-2.8-2.5-.7-1.4-.1-.7-.4-.1-.6.2h-.8l-1-.4-1.5-1.5-1.5.4-3.5-1.7v-3.5l-.4-.3-1,.1-.6.3-1.5,1.3-3.7,3.8v1.3l-.5,1.4-1.9.6-4.4,4L517,545l-1.1-.1-1-.6-.7-.6-.7-1v-1.4l-3.3.2-.7-.3-1.3-.6-2.1-1.2-1.5-.1-.9.1-.4-.5-.1-.5.2-1.7-.5-1.4-2.9-2.8-1-1.9-.1-.7.2-.8.8-1.5.6-.7.2-.9-.1-.6-.5-.7-.3-1v-1.2l-.1-1.4-.5-.7-.2-.6.1-1.1-.2-.4-.7-.5-.4-1.1-.5-.4-.5-.1-1,.7-2,1.7-1,.7-.6.5-1.7.4-3.1-.6-1-.3-1-.4-1.2-.2-.4.1-.8.6-1.6.7-3.6.7-1.1.4-.8-.8-.3-.5.9-1.8.6-4.2.5-1,.8-1.1.9-.9.8-.3.3-.6-1-2.8.1-1.2.3-.3,1.1-.5.4-.2.2-.6-.2-1.4.1-2.8-.1-1-.5-1.1-.9-1.1-.4-.7v-1l.2-.9.9-1.6.6-2.9.8-1.7,1.3-1.5,1.9-1.3.4,2.1.6,2.1.7,1.3,1,3.1,2.6,4,1.4,1.5.9.8,1.5.9,1.2.5.6.2,1-.3,1.7-1.3.9-.5.9-.1.8.5.6.9.8,2,.7,1.3.5,1.3v1.2l-1.6,3.1-.4,1.4-.1,1,.9,2.4,1.1.2.5-.1.8-.5,1-.8.9-1.5,1.3-.9,1.4,1.3,2.9.8.9,1,.6,2.1h1.2l.7.2.7.5,1.2,2.2,1.6,2,2.3,1.3.8-.1.8-.3.5-.1,1.4-.5,1.1-.1.7.1.7.3.5.4-.1,1.7,3-1.9,4.4-1.1,2.1-.3,1.5.1,1.4.5,1.2.7,1.3,1.1.5.6.7-.4.4-1.4v-1.5l.6-3.4.7-2v-2.9l-.3-1.2.3-1.1,1.3-2.1.3-2.4.8-1.3,2.9-2.3.2-.8,2.2-3.6,1,1,3.1,1.5,2.7,2.5.8,1.3.3.8v1.2l-.3,1.4-1,2.8-1,1.6-1.5.7-.3,1.4-2,1.3.3,2.3,2.6,3.4.9.6.8-.1.9-2.4,1.4-1.3.7-1.7.3-1.5.2-.3.4-.1,2.3.7,1.7-.1,3.3-5.2,1.2-3.4,1.2-.6h.4l.8.2,1.6,1.1,2.2,1.1,6.2,1h1.2l.7-.7.9-3.3,5.1-6,.7-1.2.9-1.1,1.8-.7,2.1-.5,1.2-.9,1.2-3.3,1.2-.7.8-.3,1-.8.5-.8.2-.7-.1-1.3.2-1.2-.8-2.1,1.3-3.8-.3-2.9.5-2.6-.3-.9-.5-1.1-.6-.7-.7-.4-2-2.1-.5-1.2.6-1.1,1.4-.4h.6l1.3,1.2,2.3,1.8,1.1,1.5.7,1.4,1.4,3.5,1.2.3,1.8-.5,2.4-2.5,1.3-.6.7-.5.6-.8v-4l.5-1.1,2.5-4.6,1.1-5.1.3-2.6-.7-2.3v-1.1l.1-.9.5-1.4-1.8-4.8,1.7.3,3.8,2.1,1.5.3,1.2-.2,1.2-.7,1.8-1.7.8-1,.7-1,.7-1.9,1.2-2.4,1.5.4.5,1.3.4.3.7-.2.6-.4.6-.6.5-.6.2-1,.3-.6.4-.4,1.4-.5,5.5.1,1.9.5,1.3.5,1.3.7Z"/><path id="COL1316" class="cls-1" d="M406,272.6l-.1,4.2,1.8.7.6.4,2,.5,3.6,1.7.9,1.3,1.2,1.3,2.5.6.3.6.3.1,1.4.1,1.1.7.5,2.9,1.9,2.9,11.7,5.4,2.9,2.1-.6,1.3.2.5,1.2,1.8.2.4-.5.8-.3,3.3-.7.5-3.4.9-1,.1-.7.3-1,.7-1.3,1.4-1.3,1-.5.6-.2,2.7,1.3,4.2-.4,1.8v1l.2,1.4,1.3,4.4v2.9l.4,3.4.4,1.2.5.9.7.7,2.8,1.3,2.2,1.5,2.5,2.6,7.1-3.5,2.9-.9,3.7-1.3,1.5-.1h.9l1.4,1.2,2.5,1.9,1.9,3.1,1.5,1.5.9.6.8.9.4,1.1L466,350l.3,1.1.1.4-.1.5-1,1.1-.8,1.1v.9l-.5,1.1-1.2.3-1.1.8-1.1,1.2-1.8,2.8-2,2.7-3.7-.2-1.4.1-1,.2-1,.6-.9.3-.9-.2-1.2-.3-1.5-.1-5,.5-1.7.5-1,.4-2.3,3.5-4.1,4.4-2.5,3.2-1.9,1.6-3.5,2.4-1.1,1.1-2.1,4.7-1.8,1.1-1.2,1.1-.8,1.2-1.3,5.6-1.6,2.5-1.3.8-2.5,1-4,.8-2.4.8-1.9,1.4-4.7,6.7-.3,1-.1.7-.8.5-.7.2-6.6-.3-4.4-.1-25.3-.7-1.8-5.7-4.2-9.2-.6-3v-6.5l2.5-9.1,2.4-3.9.9-3.2.2-1.8-.2-6.3,1.3-2.3,2-3.1,3.5-7,3.2-4.6,3.6-4.2.2-2.9-.1-2.9-.9-5.6-2.2-3.3-1.1-1-3.6-1.3-1-1-1.2-2.1-1.6-2.3-1.1-5.4-.5-1.4-1.8-1.8-.4-.3,1.1-1v-.4l-.5-.8.6-.5,4.1-1.1,1.6-.9,1.2-.1.6-.5.3-.6.7-.9,2.4-1.8.6-.7-.6-2.4.7-2,1.3-1.5,2.2-2,.7-.8.4-1,.7-5.7.5-1h.4l1.9-.8,1.1-.4.3-.8v-1.2l.1-1.2.3-.6.7-.8.7-.5.6-.3,2.7-.8,2.1-.7,1.9-1.1,1.6-1.3.2-1.7.5-1,1.5.2.7.7,2.2-.1,2.4-.5,1.6-.6,1,.5.4.5v.9l-1-.4-1-.2-.9.3-.8.7.9.5.4-.1.6-.4.8.8v.6l2.1-1.4,1.3-.7,1.5-.2,1.5.2,1.3.4Z"/><path id="COL1317" class="cls-1" d="M545.3,387l1,1.2,1.2,1,1.6.8,1.6,1.4,1.7,1.9.2.4v.6l.8,1.3.5.5,1,.6,1,.4,1.3.3,3.7.5,1.2.7.3.7.7.2,1.3.2,2.2-.1,3.2.3.2-.5.7-3.1,1-1.6.6-.5.5-.1.8.1,1,.4,1.3-.1,2.1.3h1.5l.7.1.7.3,1.6.1,1,.3.7-.5,1.3-.4,2.4.5-.2.7-.1.7.5,2.2.3.9.6,1,4.8,3.8.2,1-.2.9.4,1.3,2,3.1.7.8.1.6.9.4-.1,3.8-2.5,3,1.2,1.7.7,1,.4.3.7.3.2.9-.1,1,.4,1.2-.5.9-.8,1.2-2.5,3.9.4,1,.3.2,1.8.8,1.5.2,1.7.4.5.3.7.8.8.5,1.8,1.5,1.6-.8.4-.1h.8l.9-.1.5.2.3.7.3,1,.2.2.5-.5.5-.9.3-.1,1.5.3,1.9-.4.7-.3.9-.1,1.1.2.3.6.3.7.2,1.6.1,1.1-.3,2,.3,1.8,1.3-.1.4-.3.6-.7.5-.9,1.8,4.8-.5,1.4-.1.9v1.1l.7,2.3-.3,2.6-1.1,5.1-2.5,4.6-.5,1.1v4l-.6.8-.7.5-1.3.6-2.4,2.5-1.8.5-1.2-.3-1.4-3.5-.7-1.4-1.1-1.5-2.3-1.8-1.3-1.2h-.6l-1.4.4-.6,1.1.5,1.2,2,2.1.7.4.6.7.5,1.1.3.9-.5,2.6.3,2.9-1.3,3.8.8,2.1-.2,1.2.1,1.3-.2.7-.5.8-1,.8-.8.3-1.2.7-1.2,3.3-1.2.9-2.1.5-1.8.7-.9,1.1-.7,1.2-5.1,6-.9,3.3-.7.7H585l-6.2-1-2.2-1.1-1.6-1.1-.8-.2h-.4l-1.2.6-1.2,3.4-3.3,5.2-1.7.1-2.3-.7-.4.1-.2.3-.3,1.5-.7,1.7-1.4,1.3-.9,2.4-.8.1-.9-.6-2.6-3.4-.3-2.3,2-1.3.3-1.4,1.5-.7,1-1.6,1-2.8.3-1.4v-1.2l-.3-.8-.8-1.3-2.7-2.5-3.1-1.5-1-1-2.2,3.6-.2.8-2.9,2.3-.8,1.3-.3,2.4-1.3,2.1-.3,1.1.3,1.2V515l-.7,2-.6,3.4v1.5l-.4,1.4-.7.4-.5-.6-1.3-1.1-1.2-.7-1.4-.5-1.5-.1-2.1.3-4.4,1.1-3,1.9.1-1.7-.5-.4-.7-.3-.7-.1-1.1.1-1.4.5-.5.1-.8.3-.8.1-2.3-1.3-1.6-2-1.2-2.2-.7-.5-.7-.2h-1.2l-.6-2.1-.9-1-2.9-.8-1.4-1.3-1.3.9-.9,1.5-1,.8-.8.5-.5.1-1.1-.2-.9-2.4.1-1,.4-1.4,1.6-3.1v-1.2l-.5-1.3-.7-1.3-.8-2-.6-.9-.8-.5-.9.1-.9.5-1.7,1.3-1,.3-.6-.2-1.2-.5-1.5-.9-.9-.8-1.4-1.5-2.6-4-1-3.1-.7-1.3-.6-2.1-.4-2.1,2.3-1.6,1.7-1.9,3.1-4.7.8.3.7-.2.5-.6.3-.8-.1-.8-.4-.7-1.1-1.2-.2-.9-.2-6.2.2-.5.8-2,.1-.5.4-1,1.1-.3,2.7-.4,2.5-1.2,12.4-9.2.9-1.2,2.1-4.1,2.8-3,.4-1,.7-.5,5.5-2.7,1.6-1.2.9-1.8-.4-2.8-.5-1-.8-1-.7-1-.3-1.4-.7-8.7.5-3.2.4-2.8.8-2.8.8-1.9.1-.6-.2-.8-.6-.9-.1-.7v-2.6l.3-1.1,3.8-4.7.2-.6.9-.5.3-1v-2.3l.4-1.2.1-.7-.3-.6-.6-.9.2-.6.4-.5.2-.8.6-3.9-.1-1.4-.8-4.1-.3-.6-.7-.6-.9-4.1.2-.8-1.2-3.8-.1-1.3.1-1.3.5-2.1.7-1.8-.1-.2,1.4-.6.3-.1.5-.8.5-.7.6-.6.7-.2.7-.8.4,3.4.1.9.5,1.4,2.8,4.9.1,1.2.6.7.8.2.4.2.5.6.8.5.4.6.4,1.2V375l-.5,1.2-1.9,1.6-1.1.8-1.2,1.2-.3.7-.1.6.2,1,.2,1.3-.7,1.2-.1,2,8.5.4Z"/><path id="COL1318" class="cls-1" d="M593,203.5l-1.6.3-2.6,1.1-1.1.3-1.2.2-1.2-.1-1-.2-1.2-.5-1-.2-1.3.2-1.2.5-1,.3-.6-.3-.4-1.2-.4-1-.8-.9-1.3-.4.4-.8.4-.7.8-.4,1.3-2.5.9-.5.8-2.4.9-1.1.6-1.6.3-.8.8-1.1-.7-1.1-2.6-2.2-2.7-1.6-2-.5-1.8-1.1-2-.6-.5-1,.1-.7.3-.9.1-.8-.3-1.8-.3-1.2-.8-1.1-.9-.6-1.2.1-2.4-.5-1.8-.1-1.5-.3-4.4-.2-10.3,1.4-1.4-5-.4-2.8-.3-.9-.8-1.3-.1-.5v-.7l.4-1.7.4-1,.2-3.6.1-.8v-.8l-.2-1,.4-.7,1-.3.3-.3.9-1.2.8-.5.3-.6,1.3-3.9-.2-1.9h11l7.4-1.2.6-.4.5-.6,2-1.5,1.7-1,.9-.9.8-1.6.3-.2.8-.3.6-.5.9-1.4.8-.6,2.2-1,3.8-3.7,8.2-4.3,11.7-9.7,1.2-.7,2.5-.9,4.1-.8,1-.5,2.1-1.5,1.3.4,1.5-.7,1.4-1.1,1.6-.5,4-.1,1.2-.4,1.1-.6,1.7-1.4,2.2-.6,2.9-2.1,3.6-1.4.8-1.1,1.2-1.3.3-.7.1-.6.9-2.4,2.4-3.8.7-2.3,1.5-2,.4-.9.1-1.3-.2-3.9-.3-1.4-.4-.5-.6-.6-.6-.3h-.3l.2-.9.6-.6,1.5-.9,2.1.8,6.9-1.3,2.4.6-.3,1.3-2.8,2.9,1,.5,1.1,1.8,1.1.5,2-.9.4-.2.2-.9.4-.8.6-.6.6-.4h.9l.9.1.7-.1.3-.7-.3-.7-.4-.6-.3-.6.5-.7-.7-.5-.7-1-.9-.3-.9-.1-.8.1-.7.4-.4.5h-.4l-.5-.9,3.1-2.2,2.5-2.1.4-1.2.3-.2,1.2.1.3-.1,1-.8.6-.1.8.4-1.2.6-.9.8-.2,1,.9,1,.8.3,1-.3v-.9l.2-.1h1.2l1.3-.7.8-.6.4-.8.3-1.2-.8-.4.3-.6.4-.4.6-.3,1.3-.2-.4,1.2.4.6.6.5.3,1h.4l.5-.7.1-.5-.8-.4.4-.3,1.6-.9.9-.3.9-.4.7-.8-.9.1-1.7.9-.7-.3.1-.5.6-.6.7-.5h-.8l-.7.2-.5.3-.4.4.3-1.5-.6.2L673,66.6l-.6.7-.4-.5.7-1.2,1-1.1,1.2-.7,1.4-.3,1.4.2,2,1,1.5.3H686l1.4.2,1.4.7,2.1,1.4.9.9.4.3.9.2h2.4l.6.2,1.4,1.1,1.3.5,3.1.6,2.3,1.1,1.3,1,1.3,2.1.2,1.3,4.1,7,.5,1.8,2.5,3.8.4,1.4-.4,1.5-.8,1.5-.8,1L710.7,96,706,98.6l-1.3,1.5-1,.5-1.1.4-.9.2-.3.6-1.4,3.7-.3.5h-2l-1.2.7-2.3,1.9-2.7,1.2-9.6,2.5L656.5,119l-1.3.8-1.2,1.7-12.7,23.8-4,7.6-.7.8-1.2.4-2.5-.7-1.3-.1-1.3.2-3.8,1.4-2.9.2-1.4.2-1.2.8-.3.6-.1,1.3-.2.7-.5.7-1.2,1.4-.6.7-2.3,5.8-1.2,1.7-1.3,1.2-2.9,2-1.8,2.1-1.5,3-3.3,9.3-1.8,3-4.1,4.8-1.3,3.6-.9,1.3-1.1,1.1-1.1,1.4-.4,1.4-.1.3Z"/><path id="COL1342" class="cls-1" d="M2.3,61l-.9.1L1,60.5l.8-.8-.5-1.4L1.5,57l.7-1.2,1-.8.3.8ZM25.1,4.5l-1.2.3-.2-1.6.5-1.4.9-.8.9.5.4,1.2L26,3.8Z"/><path id="COL1397" class="cls-1" d="M475.6,519.9l.3.5.8.8v2.3l.5.9.5.2-.8,1.6-.5.7-.1.6.6.2.4.9-.4,1.8-1.2,2.9,1.1.3.3.5-.5.4-1.1.2-.9.3-.2.6.5.7.8.3-.4,1-.1,1.2.2,1.3.3,1-.9.2-.3.4.4,1.5-.3.4-.9.8-.5,1.8-1.3,2.2-.3,1.4-.2.3-1.7,1.6.1.7-.7.2-2.6-1.1-2.4-.7-.6.1-1.4.2-1.3.6-2.5-.5h-1.4l-2.5.8-1.4.2h-.9l-1.2.5-.6.5-1.6.7-.4,1.2-2.8,4.2-.6,1.5-.4.2-.6.2-1-.2-1.5-.7-1.9.9-.6.7-1,.6-1.2.4h-1l-.8-.3-.8.1-1,.5-1.4,1.3-1.6,1.8-.6,1.7,1.2.6.9,1.6-2.1,4.1-.3,1-.1.9,1.1,2,.6,1-.1,1.1-.5,1L429,583l-1.5,2.6-1.7-1.7-2-1.6-1.2-1.2-.9-1.1-1.3-2-.6-.5-.7-.2-1.4-.1-1.8-.5h-.8l-1.5.1-1.7-.2-.3-.5-.1-.7-.7-1.1-.8-.4-.2.3-1.4,1.2-.8.4-.9.1-.7-.1-.8-.5-.3-.7-2.3-5.6-.4.1-1.9,3-.2.5-.1,2.3-.2.7-.4.6-1,1-.5.3-1.5-.3-1.2-.6-.2-.5-1.6-1.2-.7-1-.4-1-.2-.9-.1-1.1-.5-1-.9-.8,1.5-3.8.9-1.4.3-.2.5-.1,1.2.1.4.1,1.2.8.5-2.6,1.5-2.9.3-1.1-.1-1.3-.1-.4-.8-.6-.2-1.3.3-.7,1.3-1.1.8.1,1.2.5,1.1-.3.9,1,.9.4,2.2.4,1.6-.6,1.3-1.9.3-.7-.7-.8-.4-.6-.2-.8v-.5l-.4-.5-1.9-2.1-.8-.6-.6-.3-.7.1-1,.7h-.8l-2.6,1.2-.5.1-2.5.3-1.1-.9-.1-.9V539l3.5-1.5,4.4-3.1,1-.1,1.8,1.3.7.7.6.2,1.5-.1,1.4.2,1.6-.1,1.7.5.3-1.6.1-1.3-.1-1.4-1.1-3.7v-1l.4-2.1-1-.3-.4-.9v-2.3h.8l2.2.8.8.2.8.6.3,1,.6.6,2.6,1,.4.2h1.1l3-1.6.7.3.6.5,1.5.5.3.4.2.7-.1,1.3-.1.7.1.6.7.8.5.3.9.4.5.8,1.6,4.6.1,1.2-.3,2.5,1.8-.7,1.1,2.7.7-.2.8-1.3.8-1,.6-1.3,1.1-.9,1.4-.9,1-.5.8-.3,1.7-.1.6-.4v-.5l2.3-2.6.5-1-.1-2.5.2-1.8,2.5-.2,1.3-.5,1.3-.7.7-.8.9-1.4,4.3-1.3,4.1-.8,1.3.4,1.2,1.1,2.8,1.9.7.3,2.2-.7.9-1.6.3-1.4.5-1.2.1-.5.4-.4.9-.1.6-.2.4.2.8.7.6-.4Z"/><path id="COL1398" class="cls-1" d="M583.8,590l-.7,1.2-2.3,16-2.2,14.6-.2,1.6-.3.6-.5.3-1-.5-1.8-1.2-.8-.4-.3-.3-.4-.8-.8-.6-1.5-.6-8.2-2.1-4.3.5-1.7,1.3-1.1.5-1.1.2-.9-.2-.8-.4-1-.4-.8-.4-.6-.5-.3-.5-.1-.8-1.4-3.2-.4-1.9v-.9l-.3-.6-.9-1.3-.8-.9-.8-1.4-.6-.3-.6-.1h-1l-.7-.6-.7-.9-.7-.4-.7-.2-.9.2-.6.6-1,1.6-.4.8-1.5.9-1.6.7-.5.4-.7.9-.5.7-.1,1.4.9.9.8,3.6-.2,1.3.2,1.4,1.1,1,.5,1.1v1l.1.8.7,2.2-1.9.1-.8-.2h-1.5l-.7.5-.6.6-4.5,2-1.2.2-1.5.8-.7,1.3-.6.8-1.1.3-1,.1-1,.2-1.1.6-1.1,1.2-2.4,1.6-3.3,3.2-2.1-.1,1.3-3.4.2-2.1.2-.6,1.2-.8.5-.6.6-1,.1-.6-.6-1.4-.8-1.3-1.6-1.9-1-2.6.1-1,.2-.9,2.8-4.4.3-2.1-.3-.5-.6-1.6v-1.8l.2-.9.5-.6,1.2-1,.8-1.4.8-1.1,2-3.3.4-.4,1-.5,1.3-4.4-1.3.1-1-.8-.2-.5.1-.5.3-.4.6-.5.2-.7-.2-.7-.1-5.4.1-1.3.4-1.7-1.9-.8-1.2-.1h-.7l-.9-.4-.3.1.2.6v.8l-.6,1-.9.4-.4.5-1.4,3.3-.2.3-1.1.3-.4,1.1-1.2.8.1.5-.1.6h.7l.2.5-.3.5-.4.4-1.8.8-1.8,1.4.9,1.5.3.4.8.6.4.7.8,2.8-.1,2.7-2.5,6.8,1.4-.1.3.5-.1,1.1-.7,2.5-.6,3.5v1.1l-.2,1.1-.4,1-.7,1.4-1.3,1.6v2.9l-.8,3-.3.5-.4.2-1.7-.5-.7-.3-1.3-1.1-.6.5-.4.5-2,5.3.1,1.4v.7l.1,1,.4,1.3.1,1.5-.2,1.1-.4,1.4-1.7,3.9-1.7,3.1-4.9,6.8-2.4-1.8-2.3-2.8.9-4.9,1.8-3.3.6-1.7.3-1.2-.1-.9-1.3-2.3.8-2.6-.5-1.1.2-.9.2-.8.5-.8,1.2-1.3.9-1,.1-1.6-.4-1.6-.1-.8-.4-1-.5-.7-1.5-3.2-1.2-.9-.9-.9-.7-.4-1.1.2-1.8.7-.5.3-.4.4-.4,1-1.1,1.5-.7.3-.8-.3-.7.2-.7-.2-.8-.3-2.2-2-1.1.4-.4-1-1.9-1-.1-.8-1.6.3-1.5.1-1.9.5-1.5.1-.7-.7.3-2,4.8-10.6.7-2.6v-2.7l-.9-2.9,1-.3-.2-.4-.8-.7.5-.8,1.1-1.4.3-.8-.2-.5-.9-.3-.3-.4-.1-.4.1-.9-1-1.4-.1-.8.4-.8.8-.5.8-.2.7-.4.5-1.5.9-.9.3-.9-.6-3.3v-1l.2-.8.4-.7.8-.2-.3-.6.3-1v-.7l-.8-2.3v-.5l.4-.4,1.5-.7.3-.3-.1-.5-1-1.5-.3-.8.1-1.4.9-4.1-.5-10.9-.4-1.5-.1-.7,1.7-1.6.2-.3.3-1.4,1.3-2.2.5-1.8.9-.8.3-.4-.4-1.5.3-.4.9-.2-.3-1-.2-1.3.1-1.2.4-1-.8-.3-.5-.7.2-.6.9-.3,1.1-.2.5-.4-.3-.5-1.1-.3,1.2-2.9.4-1.8-.4-.9-.6-.2.1-.6.5-.7.8-1.6-.5-.2-.5-.9v-2.3l1.1-.4,3.6-.7,1.6-.7.8-.6.4-.1,1.2.2,1,.4,1,.3,3.1.6,1.7-.4.6-.5,1-.7,2-1.7,1-.7.5.1.5.4.4,1.1.7.5.2.4-.1,1.1.2.6.5.7.1,1.4v1.2l.3,1,.5.7.1.6-.2.9-.6.7-.8,1.5-.2.8.1.7,1,1.9,2.9,2.8.5,1.4-.2,1.7.1.5.4.5.9-.1,1.5.1,2.1,1.2,1.3.6.7.3,3.3-.2v1.4l.7,1,.7.6,1,.6,1.1.1,3.1,1.8,4.4-4,1.9-.6.5-1.4v-1.3l3.7-3.8,1.5-1.3.6-.3,1-.1.4.3v3.5l3.5,1.7,1.5-.4,1.5,1.5,1,.4h.8l.6-.2.4.1.1.7.7,1.4,2.8,2.5.7.5v.6l.5.7-.4.8-.4,1v.7l.3.9.3.8,1.8,1.4,1.1.9.3.5,1.1,1.8-.3,1.7.5,1.9,1.7,2.8.2.8-.3,1,.2,1.4,1,1.9-.1.9-2.7,2,.3,2.2-2.1,3.9v.9l1.5,2.1,5.5.1,2,.6.6.5,1,1.6,1,1.1.4.7-.2,1.1.1.4,2.6,1,1.3,2.3.4.8.5.5.8.1,1.2-.4,1.3.1.7.2.6.4.2,1.9.5,1.2,1.5.1,2.7,1.1,2.8-.2.9-.5.5-.5.2-.6,1-1.7v-.8l.5-.7Z"/><path id="COL1399" class="cls-1" d="M509.7,639.1l-3.6-.9-1,.7-1.3,2.7-.9,1.5-1.7,2-1.3,1.3-.6.8.1,1.4-.6,1.5-1.3,2.2-4.4,5.4-.9,2-.4.5-.4.9-.6.3-1.9-.1-2-1.8,4.9-6.8,1.7-3.1,1.7-3.9.4-1.4.2-1.1-.1-1.5-.4-1.3-.1-1v-.7l-.1-1.4,2-5.3.4-.5.6-.5,1.3,1.1.7.3,1.7.5.4-.2.3-.5.8-3v-2.9l1.3-1.6.7-1.4.4-1,.2-1.1v-1.1l.6-3.5.7-2.5.1-1.1-.3-.5-1.4.1,2.5-6.8.1-2.7-.8-2.8-.4-.7-.8-.6-.3-.4-.9-1.5,1.8-1.4,1.8-.8.4-.4.3-.5-.2-.5h-.7l.1-.6-.1-.5,1.2-.8.4-1.1,1.1-.3.2-.3,1.4-3.3.4-.5.9-.4.6-1v-.8l-.2-.6.3-.1.9.4h.7l1.2.1,1.9.8-.4,1.7-.1,1.3.1,5.4.2.7-.2.7-.6.5-.3.4-.1.5.2.5,1,.8,1.3-.1-1.3,4.4-1,.5-.4.4-2,3.3-.8,1.1-.8,1.4-1.2,1-.5.6-.2.9v1.8l.6,1.6.3.5-.3,2.1-2.8,4.4-.2.9-.1,1,1,2.6,1.6,1.9.8,1.3.6,1.4-.1.6-.6,1-.5.6-1.2.8-.2.6-.2,2.1-1.3,3.4Z"/><path id="COL1400" class="cls-1" d="M426.7,591.2v.5l-1.8,3.3-.4,1.6-.8,1.2-3.2,1.7-1.5,1.6-.5.7-1.2,3.2-2,2.5-1.5,3.2-.5,4.6-.8,4.3-.8,1.2-1.6,2.4-1.5,1.1-.4,1.2-1.4,1.9-.5,1-1.1,1.9-3.5,4-1.3-.6-1.2-.8-2.1-.7-.3-.4-.2-.5-.1-1,.1-1.2.4-.8.2-1.1-.1-1.2.2-.6.6-1.5.8-1.3,1.1-2.5.1-.4-.1-.9v-2.7l.2-.2-1.5-3.2-3-1.2h-1.2l-1.2-.5.4-1.4.4-.5.7-.5-.5-1.2-.1-5.1.5-1.7V600l.6-.9-.1-.9,2.5-3.5,4.6.7.7-.3h2l.5-.6-.1-1.1-.3-1.9.8-.5h.5l1.8,1,.6.1h6l2.5.3,2.4,1.8.8.1.9-.5,1.1-.1.9-.4.4-.3.9-.3.7-.6,1.5-.9Z"/><path id="COL1401" class="cls-1" d="M395.3,539v6.9l.1.9,1.1.9,2.5-.3.5-.1,2.6-1.2h.8l1-.7.7-.1.6.3.8.6,1.9,2.1.4.5v.5l.2.8.4.6.7.8-.3.7-1.3,1.9-1.6.6-2.2-.4-.9-.4-.9-1-1.1.3-1.2-.5-.8-.1-1.3,1.1-.3.7.2,1.3.8.6.1.4.1,1.3-.3,1.1-1.5,2.9-.5,2.6-1.2-.8-.4-.1-1.2-.1-.5.1-.3.2-.9,1.4-1.5,3.8.9.8.5,1,.1,1.1.2.9.4,1,.7,1,1.6,1.2.2.5,1.2.6,1.5.3.5-.3,1-1,.4-.6.2-.7.1-2.3.2-.5,1.9-3,.4-.1,2.3,5.6.3.7.8.5.7.1.9-.1.8-.4,1.4-1.2.2-.3.8.4.7,1.1.1.7.3.5,1.7.2,1.5-.1h.8l1.8.5,1.4.1.7.2.6.5,1.3,2,.9,1.1,1.2,1.2,2,1.6,1.7,1.7-.8,5.6-1.5.9-.7.6-.9.3-.4.3-.9.4-1.1.1-.9.5-.8-.1-2.4-1.8-2.5-.3h-6l-.6-.1-1.8-1h-.5l-.8.5-4.6-.7-2.6-.8-.7-.1-1.5.3.6-1.4v-.6l-.2-.8-.6-.3-.9.2-1,.9h-.6l-1-.1-.7-.5-.4-.6.1-1-1.1-1.9.7-.5.4-.9.2-1.5-.3-.5-.9.5h-1.7l-.6-.2-.5-.3-.4-.7v-1.9l-2.4-2.1-.8-1.3-.4-.8-1.9-3.7-.5-.5.1-3.3-1-1.7.1-2-.7-2.4-5.5-9.1-.2-2.9,1.2-3.8,1.3-1.1,3.5-2.1.8-3.7.1-1.8,2.5-2.7,2,1,.8,1.6,1.3,1.2,1.5.9,2.3.9,3.1.5,1.5-.2Z"/><path id="COL1402" class="cls-1" d="M469.8,552.4l.4,1.5.5,10.9-.9,4.1-.1,1.4.3.8,1,1.5.1.5-.3.3-1.5.7-.4.4v.5l.8,2.3v.7l-.3,1,.3.6-.8.2-.4.7-.2.8v1l.6,3.3-.3.9-.9.9-.5,1.5-.7.4-.8.2-.8.5-.4.8.1.8,1,1.4-.1.9.1.4.3.4.9.3.2.5-.3.8-1.1,1.4-.5.8.8.7.2.4-1,.3.9,2.9v2.7l-.7,2.6-4.8,10.6-.3,2,.7.7,1.5-.1,1.9-.5,1.5-.1,1.6-.3.1.8,1.9,1,.4,1,1.1-.4,2.2,2,.8.3.7.2.7-.2.8.3.7-.3,1.1-1.5.4-1,.4-.4.5-.3,1.8-.7,1.1-.2.7.4.9.9,1.2.9,1.5,3.2.5.7.4,1,.1.8.4,1.6-.1,1.6-.9,1-1.2,1.3-.5.8-.2.8-.2.9.5,1.1-.8,2.6,1.3,2.3.1.9-.3,1.2-.6,1.7-1.8,3.3-.9,4.9-.3,1-4.2,3.8-2.7,1.8-.8.9-.6.8-.7,1.5-.5.6-.9.3-.3.3-.4.7-.3.6.1.8.2.5v.7l-.3.5-.8.9-.6.4-.6.5-.4.8-.3,1.5.1,1,.3.9.1.7-.4.8-1.4,1.2-1.3,1.7-2.6,3.7-3.6,3.6-3.8.7-3.2-.2-3.1-.8-.5-.5-.3-.6.4-1.6.2-.8.1-1.2.1-.4.6-.8.2-.6v-.7l.5-1.5.3-.7h-6.6l-1.1.3-.4.5-.8.4-.6.7-.1,1.1-1.3-.5-.4-.8-.6-.1-.8.2-.9.9-.5.7-.8.7-1-.8-.9-.5-1.4-.9-.6-.4-.7-.1-2,.3-.7.5-.9,1.2-.5.3-1.3.4-.6.2-.7.6-.8.2h-.6l-1.3-.3-.8.1-1,.9-1.3,2.1-2,2.6-1.9,3-1.5,3.1-.2,2.6-1.7,1.7-.5,2.2-1.2,1.5-6.6,5.4-2.5,2.7-1.5,3-.6.8-1,.2-1.8-.1-5.4-1.9-1.3-.7-1.4-1.3-1-.1h-.8l-2,1.4.1-4.5-1-2.7-1.4-1.2-.9-1.3-1-.4-1.3-1.1.1-1.5.2-.6.7-.6.4-1.9-.2-1.2.2-1.5,1.1-.6.7-1,.1-3.7.2-.8.4-.5.5-.4.3-.4-.2-.7-.5-.6-.8-1.7.9-1.8.1-1.7.1-2.2.4-1.3.7-1.7.3-1,.4-1,.8-1,.4-1,.5-.8.1-.9-.1-1.3.6-3.7.6-1.3.5-.8.7-2.4.3-.2,1.2-1.5.2-.4.8-1.7,4.5-6.8,1.5-3.7,1-2,.7-1,.9-2.6.5-.8.8-.5,2.1-1V636l-1.1-1.7,3.5-4,1.1-1.9.5-1,1.4-1.9.4-1.2,1.5-1.1,1.6-2.4.8-1.2.8-4.3.5-4.6,1.5-3.2,2-2.5,1.2-3.2.5-.7,1.5-1.6,3.2-1.7.8-1.2.4-1.6,1.8-3.3v-.5l.8-5.6L429,583l1.2-1.7.5-1,.1-1.1-.6-1-1.1-2,.1-.9.3-1,2.1-4.1-.9-1.6-1.2-.6.6-1.7,1.6-1.8,1.4-1.3,1-.5.8-.1.8.3h1l1.2-.4,1-.6.6-.7,1.9-.9,1.5.7,1,.2.6-.2.4-.2.6-1.5,2.8-4.2.4-1.2,1.6-.7.6-.5,1.2-.5h.9l1.4-.2,2.5-.8h1.4l2.5.5,1.3-.6,1.4-.2.6-.1,2.4.7,2.6,1.1.7-.2Z"/><path id="COL1403" class="cls-1" d="M542,799.5l.5,1.8.1.9,6.8,10,1.1,1.1,3.4,2.6,1,1.1,1,1.9,1,1.2.6,1.1.8,2.2.1.9.1,1.5.2,1.6,3.4,3.9,6.8,6,1.8,2.3,2.5.8.8.5.4.8.4,1,.7,1,1.3.9,1.4.9,3.6,1.1h1.3l1-.1,1-.4,1.5-1,1-1.6,1.5-1.2,1.4-1.5,1-.9,2.1-.9.9-.6.4-.8.3-.9v-.8l-.3-1.3.2-.7.5-1.2.2-1.1.2-.7.9-1.1.5-.2,1.2-.3.3-.3.2-.6.5-.2.8.3,1.1.7.9,1.2,1,.8,1.5-2.3v-.6l2.4-.5,2.2.9,1,.6,1.9,1.7,5.5,3.6,1.7.5,2.2.3.9.4,3.1,2.9.7,1.1.3,1.2.1,2.1.2,1.1.4.9.7.5,1.1.1.9.3.5,1.3.2,2.1.3.4.7.3.7-.2.5-.5h.5l.5,1.4-.1,1-.3,1.2-.1,1.1.7.7,1.9.6.6.6,1.2,2.7.5.6,4.6.3,1.2.3,3.1,1.1.5.4.4.6.4,1.4.6.4,2.8.3,1.1.6.8,1.5.4,2.7.5,1.1,1,.8.5-.2.3-.6.5-.2,1.1.7.8,1,.4,1-.1,1.1-.6.9v1.6l2.2,1.7,2.6,1.6,1.5,1.3-.1,1-.3,1.2-.2,1.1.3.9h1l2.1-1.4,1,.2.7,1.2.5,1.2.8.9,1.5.5.8.6,1.4,2.4.8.9,6.8,3.2,3.4,2.2h.8l.7-.4,1.1-.4.6.1,1.2.4.6.1.7-.1,2.1-.6.8.2,1.5,1,2.3.8,2.1,1.9-4.5,4.5-3.5,1.9-12.4,5.5-4.3,2.9-2.5,2.9-.8,2.9-1,2.1-1.4,1.4-2.1.9-2.6.5-9.2-.1-2.1.3-1.6.8-2.6,2.5-3.6,1.9-1,1.1-2.1,3.5-1.2,1.6-1.5,1.5-1.2,1.8-.4,2.1v2.4l.1,1.9-.3,1.7-.8.8-1.8,1.5-3,.5-2.3-1.5-2.1-2.1-2.1-1.3-1.7.7-2.1,1.9-3.2,3.6-.9,1.5-.7.9-1,.1-1.7-.8-1.7-1.1-7.1-5.8-2-.8-1.9.4-2.5,1.6-4.6.9-7.6-5.1-4.1,2.9-1.5,1.6-1.6.5h-1.8l-2.3.5-2.7-.2-2.6-2-2.5-2.5-2.2-1.7-1.2-.4-.6.2-.6.5-1.1.7-1.5.2-3.1-.1-3,.2-5-.8-.9-.5-.5-.9-.8-2-.6-.5-.7-.1-1.6.1-.5-.1-.5-.4-.1-.5.3-1.3-.1-.4-.4-.4-.8-.1-.4-.2-1.9-1.2-1.2-.5h-1l-1.9,1-.9.4h-1.2l-5.1-1-5.3-1.5-3.2-1.4-1.4-1-2.2-2.6-3.7-2.7-1.2-.6-1.2.3-1.1.5h-1.2l-.4-.5-.3-1.3-.3-.5-.6-.3-1.5.1-.7.1-.5.2-.5.1-.8-.4-.5-.6-.3-.6-.6-2-.2-1-.4-.7-.7-.5-2.4-1.2-1.4-.3-2.3.9h-1.1l-.6-.8-.1-1-.2-1-1.2-.5-1,.4-.7,2-1,.5-1.1-.3-.6-.4-.6-.2-1.2.3-1.1.1-1.3-.2-1.4-.4-.9-.5-.4-.6-.4-1.5-.4-.5-.5-.3h-1l-1.1-.2-.6.1-.4-.3-.3-.9-.3-1.7-.8-1.4.1-.5.4-.5.9-1.7.4-.5-.3-.4-1.3-.4-.9-.6.2-.8.6-.8.4-.8-.4-2.8-1.6-2-2.4-1.3-7.6-1.4-4.3-2.4-2.9-.9-.5-.7-.3-2.3-1-3.1-.1-.9.4-4.6-.7-1.8-2.6-.5-1.3.4h-.6l-.7-.1-.2-.4-.2-1.1-.2-.4-.9-.4h-.7l-1.7.7-2.3.5-1.4-.5-1.1-1.4-.9-2.3-.2-1.2.4-2.2v-1.2l-.4-1.1-1.6-1.9-.6-1-.1-.7.2-1.3-.3-.7-.6-.6-.7-.5-1.6-.7-1.3-.3-3.8.5-5.7-.4-2.7-1-4.1-4.3-2.7-1.3-3.1-.4-4.6.4h-1.2l-1.2-.4-1.2-.8-1.3-.7-2.7-.3-1.2-.6-3.7-4.4-.8-1.5-.1-1.1v-.9l-.3-.9-1-.7-1.1-.3-2.6.2h-1.2l-1.8-.8-1-.2-.9.2-6.6-6-.7-.2-2.6.5-3.1-.6-1.2-.7-.8-.9-.8-1.6-.1-.8.8-8.8.2-.8L368,817l.5-1.1.4-2.3,1.5-3.3,4.2-6.6,1.3-.9,4.3.7,3.4.1,1.7.3,1.7-.3,1.4-.6,1.2-1.2,1.1-1.4,1.2-1.2,3.5-2.5,1-1,.9-1.6,1.3-1.5,4.4-4.8,3.3-4.5,4.5-6.7,5.1-4.6,5.1-8.1,2.1-3.5,1.5-2.8,1.4-1.2,3.1-2.2.7-.4,2.5-2.8,1-1.4.9-2,2.2-7.6,1-1.5.8-.8.7-.2.8.1,2,1.1.8.3,2.2-.7,5.7-4.4,2.3-2.6.5-1.2-.5-2-1.5-1.6-1.6-1-.6-1.7.4-1.3.8-2.1,1.3-2.4,3-3.8,3.6-3.3.6-.3,1.1-.4,6.7,2.2,3.2.4,1.3.4,1.2.7.9.8.6,1,1.9,5,1,1.5,1.3,1.2,1.3,1,.8,1.3.1,2.4L476.3,743l-.4,3.4-.1,2.1.3,2.4.6,1.9,1.1,1.7,4.1,4.6,1,1.5.7,1.4v1.4l-.4,1.2-1,1.4-1.5,1.6-1.3,1.7-.7,2.1v2.3l.6,3.1,1.5,3.2,2.3,2.9,2.7,1.9,39.8,14,1.9.3H530l6.4-.5,5.6.9Z"/><path id="COL1404" class="cls-1" d="M264.2,735.3l-2.2.1-2-.5-1.2-.6.5-.4-.5-.5,1.4-1.4v-.8l-.9-.5-1.2-.1-1-.7-.5-1.4.3-1.2.9.1,1,.6,2.5,3.3,1,.8,2.3,1.3,1.1.9-1.5,1Zm-4.3-9.1.8.3.2-.5.7-.5,1.8,1.9.3.5.3,1.3.3.5,2.6,2,.9,1-.3,1-1.2.1-1.7-.9-3-2.3-1.9-2.4-.4-.8-.2-.8-.1-.8.2-.3.7.7Zm-21.6-14.8-1,.3-.8-.3v-.7l1-.1.4-1,.3-1.3.5-.7,1-.8h.5l-.1,1-.1,1.8-1,1.2-.7.6Zm145.3.3.5,1.2,8.8,7.7,1.8,2.1.9.8,1.1.4,1.2.9.8,1,.8,1.8.9,1.6-1.4,4.7-1.3,2.7-.1,2,1.9,3.7-1.7.9-.8.8-.8,1.4-2.3.1-1.3-.6-2.2-2-2.4-1.7-.9.3-1.6,1.9-1.6,1.4-1.6,1.1-4.8,2.4-2.2.9-5.3,1.4-1.7-.1-1.3-.2-3.7-2.9-1-1-2.1-.4-.9,3.6,2.4,5.3V756l-.5.7-.3.7L360,760l-1,1.7-.7.4-.9,1.1.1,1.2.2,1-.2.4-.5.3-.9.3-1,.3-1.3-.3h-1.2l-1-.1-.8-.5-1.2-.2-.9.5-1.1,1.4.1,3.1.2,2-.2.7-1.8,1.7-.5,1.2-.1.8.2,2.9,1.4,2.5,4.9,3.8,3.5,4.5,2.9,4.7,1.8,1.8,2.4,1.4,5,1.5,1.1.6,2.4.9,2.6.1,2.4,1.1-1.3.9-4.2,6.6-1.5,3.3-.4,2.3L368,817l-1.3,1.7-.2.8-.8,8.8.1.8.8,1.6.8.9,1.2.7,3.1.6,2.6-.5.7.2,6.6,6-.8.7-.3.8-.6.7-1.2.2-2.1-.1-.9.2-1,.5-.8.5-.6.6-.7.4-1,.3-9.5-.3-2-.4-2.7-1.3-4.8-1.5-1.3-1-1.7-2.4-.6-2.9.2-5.9.4-1.2,1.1-2.3.3-1.1v-.9l-.3-.9-.8-2-1.2-1-.1-.7-1.3-2-1.1-1.5-2.3-.9-1.1-.7-1.1-.4-1.1.3-3.5,5.3-1.5,1.7-1.8,1-1.8.4-5.4-.3h-2.2l-.1-2.6-.7-3.3-.3-5.7.3-1.2,3.2-2,.7-.8.8-.9.3-.7.3-1.4.1-.7-.1-.5-.6-.9-.7-.5-1.9-2.9-2.1-3.3-1.1-.5-2.2.6-2.7.4-2.1.6-.4.2-1.4,1.2-.7.6-.5.3-.7.1h-.7l-1.2-.4-1.1-.9h-.5l-1,.4h-1.1l-3.4,1.2-.7-.3-.6-.4-.9.2-4-1.2,1.7-4,.2-1,.1-1-.3-1.1v-.9l.2-.6.9-2.6,2.4-2.1.6-1.1.2-1,.4-.3,1.1-.3.2-.4.8-1.9-1-1.7-1.2-.7-.8-.3-.9-.5-4-3-.6-.6-.3-.6.7-2.1,1-1.6.2-2-.8-1.1-5.9-2.8-1.3-.4-.7-.1h-1.8l-1.2.2-.7.3-.8.8-1.2.4-1.9.2-1.8.4-.5.2-1.1.9-2,.8-2.1-.1-3.1,1.2H270l-1.5-.2-2.4-.8-2.1-.5-2-.9-.6-.6-.3-.6-.2-2.2-.2-.6-4.8-7-1.2-2.8-.1-.6.2-1.2.8-2.3.2-.9.1-.7-.1-.7-.9-2.4-.3-1.5-.1-1.3-2.1-2.2-6.1-4,.7-.5h4l2.3-1.5,1.3.1,1,.9.7,1.3.5.7.7.2,1.3-.4-.6,1.1-.6,1.4.1,1.2,1.3.5.8.1,1.4.3.9.1,1.7-.4.8-.1,1.6-.3,1.2-1,.6-1.2V732l-.4-.8-.8-1.2-1-.9-1-.3v-.4h1.4v-.6l-.9-.1-.4-.5v-.6l.3-.6-.7-.2-.2-.4.1-.6.4-.6-.9-.3v-1.1l1.2.5.9-.4.8-.7,1-.4,1-.2.4-.3-.3-.3-.5-.1-1.1.5h-.6l-1-.7.2-.4.8-.5.4-.5,1.5.4,1.3.1.9-.2.7,1,.2.4h.5l-.7-1.5-2.4-.6.8-1.2,1-.6,1-.1.9-.2.8-.9,1.2.5.3.4.3.5.3-1.6-1.4-.5-2.1.3-1.4.8-.4-1v-1.5l.4-1.4.9-.7.9.1.6.6.6.6.7.6.7.2.7-1.2.9-.8v-1l-.2-.4-1-.2-.2-.3v-.4l.3-.2.4-.9.5-.2-.3-.7-.4-.2-1.1-.1-.3-.6-.2.7.2.2-.7.5-.8.1-.6-.2-.2-.8-1.7,1.5-.6.4.1-.9,2.4-2.9L274,703l1-1,5.1-4.4,2.1-3.9,1-.3,1.1.4.2-.6.3-1.3,1,.1.4-.4-.3-.7-1.1-.5-1,.4-1.5.2-.2-.6.8-1.1,1.6-1.4,1.1-.7,1.6-.6,2.8,2.7.3.2,1,1.7.7.8.2.7.2.9.2.5.9,1.4.5.3,1-.1,1.2-.5.8-.1,1.7.8.1.3-.3.4.1.3.5.4h.8l1,1.3.2-.4.4.4.5.1.7-.2,1.9-1.7.6-.6.8-.7.4-.1,1,.1,1.1-.8,1.4-.5,1.2-.2,3.1.6,3.3,1,.5.3,1.1,1,.4.6.7.3,3.9,2.1,2,.6,1.2.2,1-.2,1.2-.3.5-.4,1.2-1.3,2.2-4,.8.9,3.6,2.4,1.4,1.3,1.3.6.9.1.5-.3.9-.9.4-.1.5,1,.6.6.8.2.4-.6.6-.8.8-.3.5.1,1.1.8,1.1-1,.4-.6.6-1.5.5-.5.8-.3,1.7-.4.7-.3.7-.7.6-1,.3-1.1.1-2.3-.3-.6-.9-.9-.2-.6.3-.5,1.4-1.7,2.6,1.3,3,.6,6.6.5,1.8.6,2.5,1.8,1,.4,4.3.9,2.5,1-1.1.6-.2,1.5.2,1.2-.4,1.9-.7.6-.2.6-.1,1.5,1.3,1.1,1,.4.9,1.3,1.4,1.2,1,2.7-.1,4.5Z"/><path id="COL1405" class="cls-1" d="M486.9,659.5l-.3,1.9-1.5,3.7-1.4,2.5-5,6.7-.8,2.3-.3,2.8-.3,5.6-.3,2.2-.7,2.2-2,3.4-1.2,1-3.2,2.1-1.7,1.8-2,.9-1.5,1.1-.7.9-2.3,4-1.8,5.2-.1.4-1.1.4-.6.3-3.6,3.3-3,3.8-1.3,2.4-.8,2.1-.4,1.3.6,1.7,1.6,1,1.5,1.6.5,2-.5,1.2-2.3,2.6-5.7,4.4-2.2.7-.8-.3-2-1.1-.8-.1-.7.2-.8.8-1,1.5-2.2,7.6-.9,2-1,1.4-2.5,2.8-.7.4-3.1,2.2-1.4,1.2-1.5,2.8-2.1,3.5-5.1,8.1-5.1,4.6-4.5,6.7-3.3,4.5-4.4,4.8-1.3,1.5-.9,1.6-1,1-3.5,2.5-1.2,1.2-1.1,1.4-1.2,1.2-1.4.6-1.7.3-1.7-.3-3.4-.1-4.3-.7-2.4-1.1-2.6-.1-2.4-.9-1.1-.6-5-1.5-2.4-1.4-1.8-1.8-2.9-4.7-3.5-4.5-4.9-3.8-1.4-2.5-.2-2.9.1-.8.5-1.2,1.8-1.7.2-.7-.2-2-.1-3.1,1.1-1.4.9-.5,1.2.2.8.5,1,.1h1.2l1.3.3,1-.3.9-.3.5-.3.2-.4-.2-1-.1-1.2.9-1.1.7-.4,1-1.7.9-2.6.3-.7.5-.7v-1.1l-2.4-5.3.9-3.6,2.1.4,1,1,3.7,2.9,1.3.2,1.7.1,5.3-1.4,2.2-.9,4.8-2.4,1.6-1.1,1.6-1.4,1.6-1.9.9-.3,2.4,1.7,2.2,2,1.3.6,2.3-.1.8-1.4.8-.8,1.7-.9-1.9-3.7.1-2,1.3-2.7,1.4-4.7-.9-1.6-.8-1.8-.8-1-1.2-.9-1.1-.4-.9-.8-1.8-2.1-8.8-7.7-.5-1.2,2-1.4h.8l1,.1,1.4,1.3,1.3.7,5.4,1.9,1.8.1,1-.2.6-.8,1.5-3,2.5-2.7,6.6-5.4,1.2-1.5.5-2.2,1.7-1.7.2-2.6,1.5-3.1,1.9-3,2-2.6,1.3-2.1,1-.9.8-.1,1.3.3h.6l.8-.2.7-.6.6-.2,1.3-.4.5-.3.9-1.2.7-.5,2-.3.7.1.6.4,1.4.9.9.5,1,.8.8-.7.5-.7.9-.9.8-.2.6.1.4.8,1.3.5.1-1.1.6-.7.8-.4.4-.5,1.1-.3h6.6l-.3.7-.5,1.5v.7l-.2.6-.6.8-.1.4-.1,1.2-.2.8-.4,1.6.3.6.5.5,3.1.8,3.2.2,3.8-.7,3.6-3.6,2.6-3.7,1.3-1.7,1.4-1.2.4-.8-.1-.7-.3-.9-.1-1,.3-1.5.4-.8.6-.5.6-.4.8-.9.3-.5v-.7l-.2-.5-.1-.8.3-.6.4-.7.3-.3.9-.3.5-.6.7-1.5.6-.8.8-.9,2.7-1.8,4.2-3.8.3-1,2.3,2.8,2.4,1.8Z"/><path id="COL1406" class="cls-1" d="M246.3,730.7l6.1,4,2.1,2.2.1,1.3.3,1.5.9,2.4.1.7-.1.7-.2.9-.8,2.3-.2,1.2.1.6,1.2,2.8,4.8,7,.2.6.2,2.2.3.6.6.6,2,.9,2.1.5,2.4.8,1.5.2h1.3l3.1-1.2,2.1.1,2-.8,1.1-.9.5-.2,1.8-.4,1.9-.2,1.2-.4.8-.8.7-.3,1.2-.2h1.8l.7.1,1.3.4,5.9,2.8.8,1.1-.2,2-1,1.6-.7,2.1.3.6.6.6,4,3,.9.5.8.3,1.2.7,1,1.7-.8,1.9-.2.4-1.1.3-.4.3-.2,1-.6,1.1-2.4,2.1-.9,2.6-.2.6v.9l.3,1.1-.1,1-.2,1-1.7,4,4,1.2.9-.2.6.4.7.3,3.4-1.2h1.1l1-.4h.5l1.1.9,1.2.4h.7l.7-.1.5-.3.7-.6,1.4-1.2.4-.2,2.1-.6,2.7-.4,2.2-.6,1.1.5,2.1,3.3,1.9,2.9.7.5.6.9.1.5-.1.7-.3,1.4-.3.7-.8.9-.7.8-3.2,2-.3,1.2.3,5.7.7,3.3.1,2.6-2,1.7-1.2.1-.5-.6-.4.2-.1.8.2,1.4-.1.8-.3.6-.9.9-.7.5-4.8,1.8-1.1.3-.1,1-.1,2.9.4,3.7.1.4h.6l.4.2,1.4,1,.8.3.3.3.2.6v.6l-.6,1.8-3.5,7.5-1.9,3.3-1.3.9-1.2,1.7-4.2,5.2-1.3,1.5,2.6,2.7,3.1,2.5,1.3.8,1,.5.4.4.3.7-.1,1.1-.2.4-.5.4-.3.4v.7l.1.7,1.4,3.2.2.9.2,2.1.6,1.4.2,1.3-.3.9-.7.5-.3,1.5-.9-.2-1.2.2-3.4,1.2-1.4.1-1.1-.3-1-.5-1.2-.5-7.2-1.4-2.3-.9-1.8-1.4-.7-1.7-.3-2-.6-2.2-.5-7.1L287,865l-2.7-.7-2.3.3-2.5-.9-4.4-3.1-1.4-2.1-.5-4.8-2-1.6h-1.6l-5.4,2-1.3.3h-1.4l-1.4-.4-1.6-.6-.7-.6-.2-.7.1-.7-.3-.7-.6-.7-.7.1h-.7l-4.6-1.7-4.8-.2-2.8-1.4-8.7-6.6-1.4-.7-4-1.1-1.3-.6-1.6-1.2-6.3-7.1-1.2-.9-3.8-.9-1,.1-.9.6-.4-1.1-1.4-1.5-.3-.7-.1-1.3-.6-.2-1,.3-1,.2-1.6-.5-1.3-1-1-1.4-.7-1.5-.7-1.1-2-1.6-1.4-2-3.9-2.7,1-.5-.4-1.2-.8-.7-.9-.6-.7-.7v-1.1l.1-1.2V805l-.5-1-.4-.2-2.2,1-.5-.6-.7-.6-.9-.2-.7-.5-2-1.1-1.8-1.2-1-1-.6-1,.3-1.1.6-.7,1-.4,1.3-.3L187,795l1.1-2.1.9-1.2,1.7-1.7,1.4-1.6.9-1,1.4-1.1,3.1-.7,1.6.2,1.1-.1,1.5.3,1.3.6,1.4.3,2.3.2,1.5.3,1.9.2.3.2.5.6.7.4.6.2.7-.1-.1-.9.4-1.6.9-1,.5-1.7-.6-1.1.1-1,.5-1V780l-.4-.1-.5.8-.8.5h-1.4l-.4-.9v-1.2l.3-1.4.1-1,.3-1.7.1-.8-.3-.6-.5-.6-.7-.6-.7-.3-.7.4-.6.9-.6,2.2-.8.3-.5-.5-.1-1.4-.2-1.8-.8-2.3-.6-3.2-.6-2.3-.2-2.9,1.6-3.5.5-1.7,1.8-.8.6-1.9,2-3.6,1.4-2.9.8-2,1-1.1-.4,1.1-.1,1.2.2,1.1.3,1.2,1-3.1.5-3.2.8-1.4,1.2.3,1.7-2.1,1.7-2,1.6-2.4,1.5-.5,2.6-2.5,1.7-1.1.8.1,1.4,3.4,1.1,1.7,1.3,1.9,1.6.1-.8-2.3-.3-1.9v-2.1l.6-1,1-.9.7,1.2.5,2-.4,1.5.7,1.1,1.1,2.7,1,1.1.6.4,2.4,1.2,1.1.3.6-.1,1.1-.7,1.4-.4.1-.9-.1-.5.3-.7v-2.4l-.6-2.1-.6-1.1-.4-1.2.6-.6,1.5.3Zm-8.8-2.7,1.2.6,1.4-.5,1.4.8.4,1.2.5.7.2.8-.2.4.1.4,1.6,1.9.6,1.4.1,2.2-.7,1.9-1.9.5-1.5-.9-1.8-1.9-1.5-2-.7-1.4.2-1,1-.7.3-.7-.5-.7-1-1.9.1-.7.7-.4Z"/><path id="COL1407" class="cls-1" d="M381.6,838.6l.9-.2,1,.2,1.8.8h1.2l2.6-.2,1.1.3,1,.7.3.9v.9l.1,1.1.8,1.5,3.7,4.4,1.2.6,2.7.3,1.3.7,1.2.8,1.2.4h1.2l4.6-.4,3.1.4,2.7,1.3,4.1,4.3,2.7,1,5.7.4,3.8-.5,1.3.3,1.6.7.7.5.6.6.3.7-.2,1.3.1.7.6,1,1.6,1.9.4,1.1v1.2l-.4,2.2.2,1.2.9,2.3,1.1,1.4,1.4.5,2.3-.5,1.7-.7h.7l.9.4.2.4.2,1.1.2.4.7.1h.6l1.3-.4,2.6.5.7,1.8-.4,4.6.1.9,1,3.1.3,2.3.5.7,2.9.9,4.3,2.4,7.6,1.4,2.4,1.3,1.6,2,.4,2.8-.4.8-.6.8-.2.8.9.6,1.3.4.3.4-.4.5-.9,1.7-.4.5-.1.5.8,1.4.3,1.7.3.9.4.3.6-.1,1.1.2h1l.5.3.4.5.4,1.5.4.6.9.5,1.4.4,1.3.2,1.1-.1,1.2-.3.6.2.6.4,1.1.3,1-.5.7-2,1-.4,1.2.5.2,1,.1,1,.6.8h1.1l2.3-.9,1.4.3,2.4,1.2.7.5.4.7.2,1,.6,2,.3.6.5.6.8.4.5-.1.5-.2.7-.1,1.5-.1.6.3.3.5.3,1.3.4.5H510l1.1-.5,1.2-.3,1.2.6,3.7,2.7,2.2,2.6,1.4,1,3.2,1.4,5.3,1.5-37.1,11.5-.2-1.4-.3-.3h-.9l-.4-.2-.6-.9-.8-1-.8-.7-4.1-2.5-1.8-1.3-2.8-3-1.9-3.2-.6-.5-.8.1-1.3.8H474l-1.7-1.6-.4-.2-1.7-.1-1.3-.4-.7-.1-1.2-.4.5-.9,1.9-1.4-2.3-4.6-1-1.4-1.4-1.2-.8.2-1.7,2.6-.7.6-.7.1-1.1-.4-2.3-.5-1.5-.6-.9-.7-2.7-3-.4-.4-.6-.1-1.2-.1-.6-.2-.8-.7-2.6-3.7-1.3-1-1.4-.7-3-.8-1.4-.1-1,.2-.7.7-.2,1.3-.3.8-.9,1-1,.8-1,.4-1.3-.7-4.3-1.6-3.7-.7-1.3-1-1.6-.5-3.9-2.4-3.2-2.9-1.2-.4-.7-.4-.9-.9-1-1-1.4-.4-1.2.1-2.9.7-1.6.1-1.5-.1-1.3-.3-1.1-.5-1.9-1-2.7-2-.5-1-4.1-2.5-1.7-1.5-.7-1.1-.3-1.3-.4-.8-4.5-5.7-.2-.8-.7-1.1-1.5.2-1.7.6h-1.2l-.4-.5-.4-1.8-.4-.7-.5-.2-.8-.1-1.4.1-1.7-.1-1.4-.4-1.4-.5L368,880l-1.8-2-.7-.3-.7.3-2,1.4-1.7,2-1.3.4-1.5.1-.6-.1v.4l-.1,5,.7,4.5-1.2.8-6.7.7-1.7.9-1,.2-1.3-.5-1.8-1.6-1-.8-1-.3-3.3-.3-2.3-.7-.8.3.1,2.7h-1l-2.4-1-.8-.1-4.7.7-1-.1-1-.3-1.1-.8-1.5-1.5-.7-.5-1.1-.4-.8-.1-2.7-.1-2-.7-2.6-2.9-1.4-.3.3-1.5.7-.5.3-.9-.2-1.3-.6-1.4-.2-2.1-.2-.9-1.4-3.2-.1-.7v-.7l.3-.4.5-.4.2-.4.1-1.1-.3-.7-.4-.4-1-.5-1.3-.8-3.1-2.5-2.6-2.7,1.3-1.5,4.2-5.2,1.2-1.7,1.3-.9,1.9-3.3,3.5-7.5.6-1.8v-.6l-.2-.6-.3-.3-.8-.3-1.4-1-.4-.2h-.6l-.1-.4-.4-3.7.1-2.9.1-1,1.1-.3,4.8-1.8.7-.5.9-.9.3-.6.1-.8-.2-1.4.1-.8.4-.2.5.6,1.2-.1,2-1.7h2.2l5.4.3,1.8-.4,1.8-1,1.5-1.7,3.5-5.3,1.1-.3,1.1.4,1.1.7,2.3.9,1.1,1.5,1.3,2,.1.7,1.2,1,.8,2,.3.9v.9l-.3,1.1-1.1,2.3-.4,1.2-.2,5.9.6,2.9,1.7,2.4,1.3,1,4.8,1.5,2.7,1.3,2,.4,9.5.3,1-.3.7-.4.6-.6.8-.5,1-.5.9-.2,2.1.1,1.2-.2.6-.7.3-.8.8-.7Z"/><path id="COL1408" class="cls-1" d="M404.9,591.5l.3,1.9.1,1.1-.5.6h-2l-.7.3-4.6-.7-2.5,3.5.1.9-.6.9v.6l-.5,1.7.1,5.1.5,1.2-.7.5-.4.5-.4,1.4,1.2.5h1.2l3,1.2,1.5,3.2-.2.2v2.7l.1.9-.1.4-1.1,2.5-.8,1.3-.6,1.5-.2.6.1,1.2-.2,1.1-.4.8-.1,1.2.1,1,.2.5.3.4,2.1.7,1.2.8,1.3.6,1.1,1.7v.7l-2.1,1-.8.5-.5.8-.9,2.6-.7,1-1,2-1.5,3.7-4.5,6.8-.8,1.7-.2.4-1.2,1.5-.3.2-.7,2.4-.5.8-.6,1.3-.6,3.7.1,1.3-.1.9-.5.8-.4,1-.8,1-.4,1-.3,1-.7,1.7-.4,1.3-.1,2.2-.1,1.7-.9,1.8.8,1.7.5.6.2.7-.3.4-.5.4-.4.5-.2.8-.1,3.7-.7,1-2.5-1-4.3-.9-1-.4-2.5-1.8-1.8-.6-6.6-.5-3-.6-2.6-1.3-1.4,1.7-.3.5.2.6.9.9.3.6-.1,2.3-.3,1.1-.6,1-.7.7-.7.3-1.7.4-.8.3-.5.5-.6,1.5-.4.6-1.1,1-1.1-.8-.5-.1-.8.3-.6.8-.4.6-.8-.2-.6-.6-.5-1-.4.1-.9.9-.5.3-.9-.1-1.3-.6-1.4-1.3-3.6-2.4-.8-.9-2.2,4-1.2,1.3-.5.4-1.2.3-1,.2-1.2-.2-2-.6-3.9-2.1-.7-.3-.4-.6-1.1-1-.5-.3-3.3-1-3.1-.6-1.2.2-1.4.5-1.1.8-1-.1-.4.1-.8.7-.6.6-1.9,1.7-.7.2-.5-.1-.4-.4-.2.4-1-1.3h-.8l-.5-.4-.1-.3.3-.4-.1-.3-1.7-.8-.8.1-1.2.5-1,.1-.5-.3-.9-1.4-.2-.5-.2-.9-.2-.7-.7-.8-1-1.7-.3-.2-2.8-2.7-.8-.8.1-1.3.5-.8.7-.8.8-.4.7.1,1.1-.3,1-.1.3-.2,1.3-1.2,1.5,2.8,1,1.1,1.7.7-.4-.8-2.2-2.7-.6-.9-.1-1.2.3-1,.7-.8.2.5.5.7.4.3.2-.3-.1-.5-.8-1.1.4-1.4.6-1.2.4-1.1-.5-1.4h1.4l-.4.6v1l.1.5h.5l.6-.4h1.2l.9.8.2-.4-.2-.5-.5-.4-.6-.3.9-.5-1.2-.4h-.6l.3-.7.2-.1.9.3.2-1-.9-.3-1.4.1-1.1.3.3-1.1.7-.1,1.1.2.8-.1-1.1-.7.9-.5.3-.3-.3-.7,1.4-.3,1.4-.1v.4l-.3.6h.6l2-.6-1-.2-.2-.5.3-.6,1.2-1.4.4-.9.7-1.9.7.5.6.2.5-.3.7-.6.8-.3,1-.3.4-.3-1-.3-.9.1-.9.4-.7-.1-.3-1,1.6-.4,1.1-.4.6-.9-1.2.2-2.8.7-.9-.4-.3-1.1.2-1.2.4-1,1.8,1.4,1,.3,1.5.1.2-.4-.5-.3-.6-.1-1.3-.1-.4-.3-.4-.6,1.1.1,1-.1.7-.5.5-.8-1.1-.7-.6-.8.1-.9,1.1-.9.8.7.1.5v.7l1-1-.4-1.4-.2-1.2,3.1-1,.8-1.2.7-1.2,1-.9v-.4l-4.2.9v-.5l1-.4h-1.7l-.8-.1-.7-.4.2,2.9-3.9,2.3-4.8.8-2.6-1.4.1-.6,1-.5.2-.5-.2-.3-1.2-.6-.8-.5-.5-.2v-1.3l.5-1,.3-1.8.4-.6.6-.4,1-.1.7.2v.5l-.8.8,3.2-.6,1-.3v-.5l-2.3.5.3-.9.5-.7,1.8-2.2,1.1-2.3h-1.1l-.3-.9-1,.3-.8-.6-.8-.9-1.1-.7.3.7.1.7-.1.8-.3.6-.6-.3-.5-.1-.6.1-.6.3v.5l.2.4-.2.6-.3-.3-1-.2.2,1.2-.2,1.9-.5,1.7-.7.7-.2.4-.3,1.9-.2.5-1.1.1-.8-.6-.3-.9.4-.9-3.5-2.8-.4-.5-.3-1.1.4-1,1.4-.1-.7-1-.3-.5-.5-1.8-.3-2.1v-1.9l2.8-.4,2.9-2.4.9-.1.6.2.8.8.8.3.9-.4.5-.7-.1-1.2.3-.2,1.1-1,.7-.9.5,1.1V626l.2.7.9,1.1.6.4.5.1,1.1-.7,1.5-.5h.7l.6.1,1.3.9.8.2,2.9,3,.8,1,.3.2h1.1l1.4.2h.7l.6-.2.5-.3.6-.8.3-.2h.5l.9.1h.7l.7.3.8.8,2.8,4.3,1.7.8,2.1-.2.9.2.4.7.7.4.9.3,2.1.9,1.2.1.9-.3,2.2-2.1,1.2-.9,1-1,.7-.3.8-.1,3.3.9h.8l.5-.3.1-.9.3-.7,1.5-2.1,1.7-1.8,1.6-.8,1.6-.5,1.8-1.7.4-1.3-1-1-2.8-1.5-.3-1.7.5-3.3-.1-.5-1.6-1.4-.6-.9-1.2-2.1-.1-.5.4-.2.8.2h.5l1.2-.3,1.9-.6,1.4-1,.9-3.1-.1-1.3-.5-1.1v-.8l1-3.5.6-1.1,3.6-3.2,1.8-1.3,2-2.1.9-1.4-.2-1-.4-.7v-.8l.4-.9.5-.9.5-.6,5.5-4.7,2.7-3.2,1.9-5.4.6-.9,1.1-1.1.7-.5,2-1.9.5.5,1.9,3.7.4.8.8,1.3,2.4,2.1V580l.4.7.5.3.6.2h1.7l.9-.5.3.5-.2,1.5-.4.9-.7.5,1.1,1.9-.1,1,.4.6.7.5,1,.1h.6l1-.9.9-.2.6.3.2.8v.6l-.6,1.4,1.5-.3.7.1,2.6.8,4.6.7Z"/><path id="COL1412" class="cls-1" d="M458.5,214.5l-1.4-1.7-3-3.5-1.8-1.4-1.5-.4-3-3-3.8.8-2-3.1-1-.6.6-.9-.2-.5-1.1-.4-1.2-.2-2.6-.2-.4-.3-.3-.6-.6-1.1-.2-.9.8-2.6.1-1,.6-.5.7-.4.4-.7v-1.5l-.2-1-.4-.6-1.4-1.1-.4-.4-.1-.8.2-.9.4-.7.4.1.4-.5,1.5-1.4-.5-1v-.9l.5-1.1-.2-1.7-.3-.5.9-1.1.7-.3h.8l.8-.2.7-.3,4.3-2.8,2.5-.7,1.4-.8.9-1-.1-1.1.3-.7.3-1.6.3-.6.7-.4.9-.4,1.2-.1,1.3-.5.9-1,1.6-1.3.1-1.2h1.9l2.3-.2,1.1-.9-.1-1.7.6.9,2.8,2.6,1.5,1.8.5,1,.5,2.8.6.9.8.7.6.8.3,1.3-.3,1.2-.6,1.3-.3,1.6.1.8,1.1,3.1.2.6v1.4l-.5,5.8.2,4.4-.2,1.5-1.3,2.3-3.9,2.7-1.2,2.5-.4,3.1-.4,1.5-.8,1.2-1.1,1.3-3.5,7Z"/><path id="COL1413" class="cls-1" d="M416.9,208.8l-.7.8-1.4-.3-.6.3-.2.9-.2.5h-.6l-.2-.9-.1-1.1.2-.8.4-.6.7-.7.5.4.8.3,1.3.4.1.8Zm41.6,5.7-.5.9-.5,2.4-.9,2.2-.2,1.5.3,1.9.8.8,1.1.4,1.3.9.5.2,2,.4.8.7.6.8.9,2.1.2.2.9.5.3.6-.2,1.8-.4,1-.8.6-2.4,1.2-.7.5-.4.9-.1,1.5v3.2l.3,1.4.6,1.3.6.9,2.3,2.1.4,1.2L465,250l-.5,1.5-.3,1.3.2,1.4.6,1,1.8,1.6.8,1.1.2,1.1-.8,2.7-1,6.1.4,2.6,2-.3.5.6,1.3,1.8.9-.5.9-.3h.9l.8.5.3.5.3,1,.3.4.4.1h.9l.3.1,1.1.6.5.5.2.5.1.9.4.6.4.6.6.5,2.1,1.4,1.1,1.2.6,2.2.4.6.6.5.7.2h.7l.4-.4.7-1,1.1-.6,1.1-.1,2.2.2.3.4.5,1.8.3.6.9.4.6-.2.6-.4.7-.2,1.3.1,1.5.5,1.3.7.5.7.1,1.9.5.6,2.6.1,1.2.8,1.8,2.8,1,1.3,2.8,1.6.9.8-.8.6,1.9.8,2.3.6,2.1-.2,1.1-1.6.7.7.9.7.6.8-.4,1.1,2.2,1.2,5.6.3,1.9.8-.8,2,.1,2,.8,1.8,1.1,1.4,2.3,2.2.9,1.3.2,1.9-.3,1.4-1.2,2.5-.3,1.5.1,4.4.3,1.4.5.7,1.2,1.5.2.8v2.3l.3,1.6,1.5,2.7.5,1.6.5,4.8-.3,1-.5,1,.1.7.5.5.2.8-.2.5-.5.8-.3.8v1.9l-.1.7-.6,1.3-.2.8-.7.7-.1.8.3.6.2,1.2.2.7-.1.6-.7.8-.7.2-.6.6-.5.7-.5.8-.3.1-1.4.6.1.2-.7,1.8-.5,2.1-.1,1.3.1,1.3,1.2,3.8-.2.8.9,4.1.7.6.3.6.8,4.1.1,1.4-.6,3.9-.2.8-.4.5-.2.6.6.9.3.6-.1.7-.4,1.2v2.3l-.3,1-.9.5-.2.6-3.8,4.7-.3,1.1v2.6l.1.7.6.9.2.8-.1.6-.8,1.9-.8,2.8-.4,2.8-21.7,20.7-1.2-.3-2,.2-1.3-.2-1.6-.7-.7-1-.3-1.5-.2-1.5-.7-1.9-.6-2.1-1.1-2.7-.5-2.1-.1-1.7.7-2.3v-2.7l-.3-1.6.3-1.5.5-.9,1.4-1.5.6-.9.4-1.1.4-1.6-1.2-3.8-2.7,2.1-.7,1.2-1.2,2.9-.9,1.1-1.5,1.3-1.3.3-1.3-.4-1.4-1.3-2.3-2.8-1.3-2.9-.3-1.8v-2.1l.9-5.6.8-1.7,1.5-1.1,1.5-.9,1.2-1.2,1-1.9.2-1.2-.3-.9-.8-.5-.9-.5-.8-1.3-.6-2-.7-6.8-.7-1.9-.7-.8-1.3-1.8-1.2-2.1L464,356.2l.5-1.1v-.9l.8-1.1,1-1.1.1-.5-.1-.4L466,350l1.7-.4.6-.4,1.4-1.2.7-.2,2.2.2,1.8-.1,1.6-.5,1.4-1,1-1.1.7-1.6.2-1.7.2-.6h.3l.6.2,1.1.1.5-.8.9-2.6.2-.8-.1-1.2-.6-2.3-.2-2v-1.5l.1-.3-.8-.8-.7-2-1.2-7.9.6-1.4,1.7-1.5.9-1.6.9-.9v-.5l-.4-.7-.9-.9-3.4-5.2-3.2-3.5-6.4-4.9-1.9-.8-2.9-1.8-1.2-2.5-1.3-2.5-1.2-1-.6-.3-.7-.6-.3-.6-.2-1v-.9l-.7-2.9-.9-1.9-.3-1.3v-.8l.3-1.3-.6-.9.2-.6,1.4-3.2.9-1.4.3-.4-.3-.5-.6-.3-1.4-1-.6-.9h-.5l-.8.4-1.6.4-1.3-.3-1.1-.4-.4-.5-.2-.6,1.4-3.2-2-.6h-1.9l-.8-.6-2.9-2.5-1.4-1.8-2.7-2.2-1-.4-.8-.1-.8.2-.9-.1-2-1.4-1.2-.4-1-.1-.9.4-.5.5-1.1,1-1.4-.5-1.3,1.1.7-3,.5-.8.1-1,.1-1.2.3-1.3.7-2.1.2-1.1-.3-1.6.5-2.2.5-1.1-.1-1-1.4-.1-.9.5-.9-.2-5.4-1.8-1.5-.8-.5-.7.2-.6,1-1.4.2-.6v-.7l-.6-1.2-.1-.9-.1-2.3-1.1.1-1.2.4-.9-.1-.7-.3-.2-.7.4-1,3.1-5.5-6.5,3.5-.4-1.1-.1-1.4.6-.7,1-.4.3-.4.7-1.5.7-1.1.2-.8.1-.7V217l.3-.7-2.1,1.2-2.8,1.9-2.7,2.8-2.7,1.6-1.3-.2,1-2.3,1.9-1.1,1-.6,1-1.4.4-.9.6-.8.2-.7-.3-.9.2-.5h1.5l-.4-.6-.1-.5.1-.6.4-.6.6,1.4,1.3-.3,2.5-1.6.7-.6v-1.6l-.4-1.8-.1-1.6h-.5l-.5.4-.4-.5-.4-1.8h-.5l-.4,1.1-.4.2-.6.1.3-.5.3-1.3.3-.5.4-.4.8-.4.5-.4,1.9-2.2.6-.4-.3,1.2-.7,1.4-.3,1.2,1.1.5.9-.6.4-1.5v-1.7l-.2-1.4-.2-.3-1.2-.2.1-.4.4-1-.1-1.5-.2-.6-.9-.2-.2-.3.3-.6.6-.7.7-.3.8-.1.9-.3.7-.4.6-.6v-.4l-.5-.7.1-.3,1.5-.7h.5l.5-.1.2-.8.2-.1.6-.6.4-.7v-.3l.4-.1,1.6-.8,4.5-1.1.6-.6.7-1.1.5-.6.4-.1,1.1.5.1.4-.5.7.5.5v.3l-.4.7-.2.9.1.8.4.4,1.4,1.1.4.6.2,1v1.5l-.4.7-.7.4-.6.5-.1,1-.8,2.6.2.9.6,1.1.3.6.4.3,2.6.2,1.2.2,1.1.4.2.5-.6.9,1,.6,2,3.1,3.8-.8,3,3,1.5.4,1.8,1.4,3,3.5,1.4,1.7Zm-21-33.9v-.4l-1.1.9-.3.5-1.3-.7-.4-1.3.5-1.2,2.4-.8.2-.3.3.5.2,1.7-.5,1.1Z"/><path id="COL1414" class="cls-1" d="M593,203.5v2.3l-1.3,15-3.5,12-.1,2.7-.5,2.6-.1,1.4.5,1.8.6,1.3.2,1.2-.5,1.8-2.1,4.3-3.7,5.8-1.7,4.6-.7,1.3-1.1,1.1-2.7,1.7-1,.9-1.2,3-5.4,8-2.3,5.8-.9,1.4-1.2,1.2-2.4,1.7-.8,1.3-.1,1.5.9.5h1l-3,.7-.6.3L558,293l.3,2.6-.9,9.4.3,2.7v.5l-.5,1.9.9,3.4.5,1.6.1.7-.3.7-1,.9-1.7,1.1-.4.4-.2.5.2,1.1-.2.5-.7.7-2.4,1.9-1,.9-.9,1.4-.4.8-.2.9V329l.7,1.7,1.9,2.7,1.3,3.1.4.2.5.9-.8,2.9-1.6,1.8-.1.5.1.3,1.5.2,1,.4.4.3,1,.7.2,1.6.7.6.3-.2,1-1.5,2-1.6-.4-2.6-.5-1.1-.3-1.1.3-.8.6-.1.9.1,1.6.2.7.5.5.4.2,3-.9,4.3-1.1,2.4-.5,2-.8,1.3-.5,1.4-.2,1.5.3,5.3.9.6,1,2.3.1,1.1-.1,1.7.3.9.9,1,2.9.3.9,1.2,1.1.5.2.9-.1.9-.2.9-.9,1.2-.6.7-.8.6-1.2.5-.5.4-.3.8-.3,1.2.2,2.4-.1,1.4-.2.7-.3.6-1.5,2-.6,1-.8.8-.7.9-1,.9-1.3.9-2.1,1-.8.2-.6-.1-.7-.3-1.3-1-.5-.3-1.3-.3-.5-.5-.8-.9-.5-.3-.7-.3-2.5-.5.7.7-8.5-.4.1-2,.7-1.2-.2-1.3-.2-1,.1-.6.3-.7,1.2-1.2,1.1-.8,1.9-1.6.5-1.2v-1.2l-.4-1.2-.4-.6-.8-.5-.5-.6-.4-.2-.8-.2-.6-.7-.1-1.2-2.8-4.9-.5-1.4-.1-.9-.4-3.4.1-.6-.2-.7-.2-1.2-.3-.6.1-.8.7-.7.2-.8.6-1.3.1-.7v-1.9l.3-.8.5-.8.2-.5-.2-.8-.5-.5-.1-.7.5-1,.3-1-.5-4.8-.5-1.6-1.5-2.7-.3-1.6v-2.3l-.2-.8-1.2-1.5-.5-.7-.3-1.4-.1-4.4.3-1.5,1.2-2.5.3-1.4-.2-1.9-.9-1.3-2.3-2.2-1.1-1.4,1.8-5.6.7-1.2.7-2,1.6-2.6-1.7-2.3-2-2-.9-1.4-.3-1.4-.1-1.3-.3-.4h-.5l-1.1.1-2.6-.5-.9-.4-.5-.9v-1l.7-1v-.8l-.1-.6-.2-2.4-.3-.5-.4-.4-1.2-1-.7-1.4-.4-3.8-1.2-1.1-1.4-.8-2.9-2.7-3.7-2.2,2-1.4,3.2-3.8,1.2-.7,1-.4,1.5-.2,1.1.2.7.2,1.1.1.5.1.9.7.6.3h2.5l1.3.1.5-.3,2.8-1.6.5-.1.4.2.8,1.2,1.1-1.4-2.2-6.5-1.7-3.2.4-1.1-.3-2.3-2.9-2.7-.7-.5-3.9-5.3-1.1-1-1-.7-.9-.4-.7-.9-1.8-2.8-2.1-3.7-.2-.8v-1l.2-.7.6-2.2.4-3.2,1.2-1.6.7-1.5.7-.7,1-1.5,2.1-2.2.6-1,.7-1.8.5-1.2,1.3-1.3.9-.8.9-.3,2.4-.5.9-.3h.6l1.1.3h.7l2.6-.8,2.4-1.7.9-.2,1.1-.5.9-1.1.7-.3.8-.1.9-.1.5-.4.7-1.7.5-.2,1.9-.6,1.6-.7.5-.7-.1-.6-.5-.6-.7-.4-.3-.3-.2-.6.2-1v-1.1l-.4-2.5-.3-1-.6-1.3,1.8-3.4.7-.7,1-1.4-.2-.9-.7-.8-1-.5-1.2-.3-1-.1-1,.1-.6-.3.4-1,2.2-3.3.1-.8,10.3-1.4,4.4.2,1.5.3,1.8.1,2.4.5,1.2-.1.9.6.8,1.1.3,1.2.3,1.8-.1.8-.3.9-.1.7.5,1,2,.6,1.8,1.1,2,.5,2.7,1.6,2.6,2.2.7,1.1-.8,1.1-.3.8-.6,1.6-.9,1.1-.8,2.4-.9.5-1.3,2.5-.8.4-.4.7-.4.8,1.3.4.8.9.4,1,.4,1.2.6.3,1-.3,1.2-.5,1.3-.2,1,.2,1.2.5,1,.2,1.2.1,1.2-.2,1.1-.3,2.6-1.1,1.6-.3Z"/><path id="COL1415" class="cls-1" d="M299.3,625.3l.1,1.2-.5.7-.9.4-.8-.3-.8-.8-.6-.2-.9.1-2.9,2.4-2.8.4.2-1.1.4-.7.8-.7.9-.2.9.1.7-.1.3-.9.2-.5.7-.5.8-.2.8.3L297,626l.4.1,1-.3.9-.5Zm-4.5-3.6,1.3.6,1.4-.1,1.4-.3,1.3.2-1.2,2-.9.8-.8-.4-1.2-1.5-1.7.7-1.6.2h-3.5l-1.3-.3-.9-.1-1,.2-.6.5-.9,1.1-2.5.8-.3.2-.2-.6v-.9l.3-.9.6-.4.9-.3,1.5-1.3.8-.2.9.1,1.7.3h.9l-.3-.5-1-.7-.5-.6h2.3l-1.6-.4.2-.7,1.1-.7,1.2-.6-.9-.4h-.5l.5-1,1.8,1,1,.8.8,1,.5,1.1,1,1.3Zm24.7-270.1v.2l.8,3.3.5,1.1.3,1.3.5,5.6-.4,1.4-.5.7-.2,1.3-1.3.8-.5.7-.4,1-1.3,6.9-.9,1-1,.7-1.4,1.4-1.5,1-1.8-.3v2.8l.3.1.2.7-.4.1-.5.4.5,1,.7.8,8.6,7.9,7,5,7,7.6,5.4,6.7,1.3,1.1,1.8,1.1,2.3.3.9.3.8.6,2.9,2.5.9,1.3,1.4,4.2.2,7.6-.2,1.3-.3.6-2.2,3.7-1.6-.1-.9-.5-1.2-.4-5.5-1.4h-1.4l-4.3.4-2,.3-1.3.5-1,.6-.3,1,.6,1.4.2.2.8.5.4.8.3,1.1.3,2.5-.3,1-.6.8-.8.8-.3.4-.6.3-3.2-.3-2.1,1.3-.9.1-3,1,.2.6v2.5l.2.8,1,.7.2.7-.2.4-1.2,1.4,1.2.1.5.1.2.5v.7l.2.5.4.3.8.1-.1-.4.5-.7.6-.4.3.4-.4,1.1v.7l.4.7.6.2,1.5.2.3.3-.2,1h-.4l-.4-.3h-.4l-.6,1-.2,1.4.4.8.8-.4,1,.4.6.7.3,1V468l.7.6.5.9.6.6.9-.3,1.6,2,.1.5-.7.8-.4.9.2.6,1.1.3-.5.7-.9.3.5,1.1.6.7.1.8-.7,1.1.9.4-.6.6-.4,1.2-.2,1.3.3,1.1.4.4,1.1.3.3.2.3,1.5.1.4,1.9,2,.7,1.2.2,1.4.6.8.9.7,1.8.5,1.7.2,5.3-.2,3-.7,3.8-.3,3.2-.3,2.2-.5,2.6-.3h2.5l2.4.3,1.2.9.7,1.1.5,4.2,1.6,4.2,1.9,2.4,1.7.7h1.8l1.7.9.4,3-1.8,4.7-.2,1.6.3,1.8.5,1.5,1.9,3.2.5.9.2,1.7-.8,2.9-.1,1.1.7,1.3.4.5,2.6,2.7-2.5,2.7-.1,1.8-.8,3.7-3.5,2.1-1.3,1.1-1.2,3.8.2,2.9,5.5,9.1.7,2.4-.1,2,1,1.7-.1,3.3-2,1.9-.7.5-1.1,1.1-.6.9-1.9,5.4-2.7,3.2-5.5,4.7-.5.6-.5.9-.4.9v.8l.4.7.2,1-.9,1.4-2,2.1-1.8,1.3-3.6,3.2-.6,1.1-1,3.5v.8l.5,1.1.1,1.3-.9,3.1-1.4,1-1.9.6-1.2.3h-.5l-.8-.2-.4.2.1.5,1.2,2.1.6.9,1.6,1.4.1.5-.5,3.3.3,1.7,2.8,1.5,1,1-.4,1.3-1.8,1.7-1.6.5-1.6.8-1.7,1.8-1.5,2.1-.3.7-.1.9-.5.3h-.8l-3.3-.9-.8.1-.7.3-1,1-1.2.9-2.2,2.1-.9.3-1.2-.1-2.1-.9-.9-.3-.7-.4-.4-.7-.9-.2-2.1.2-1.7-.8-2.8-4.3-.8-.8-.7-.3h-.7l-.9-.1h-.5l-.3.2-.6.8-.5.3-.6.2h-.7l-1.4-.2h-1.1l-.3-.2-.8-1-2.9-3-.8-.2-1.3-.9-.6-.1h-.7l-1.5.5-1.1.7-.5-.1-.6-.4-.9-1.1-.2-.7v-1.7l-.5-1.1,1.2-1.5-5.7-.1-1-.2-1-1.1-2.4-4.2,1.9-2.7.4-1,.5-2.9.7-1,1.5-.7v-.5l-1.4.5.2-2,.7-3.1.1-9.3.4,1.1.9.8.3-.7.2-1.1-.2-1-1.6-.8-.3-.9v-1.1l-.2-.9,1.5.2,1.2.8.8,1.1.6,1.2h.4l-.7-2.2-2.9-3.5-.4-2.2-1.5.5-.5-2.8-.8-8.6-.5-1.2-.4-10.1.4-2.3.6-2.2.8-2-.9-.5-.1-1.5.1-1.5-.3-.7-.6-.5-.3-1.4-.2-2.7-1,.4-.6-.3-.3-.8v-1.1h.5l.5.4h.4l.5-.4-.7-.5-.3-.6-.5-2.1.1-.5-.5-.5-1.4-.3-.4-.2-.7-.7-.5-.7-.6-.6-.9-.3h-1l-.7.2-.5.5-.1.7-.8-.7h-.8l-.7.3h-.5l-.5-.8.2-.6.6-.4.8-.1.6-.7,1.6-3.3.8-1.1.6-.2,1.5-.1.7-.2.8-.5.5-.6.7-.5,1-.2,1.2.4,1,.6,1.1.4,1.5-.5.4-.4.3-.9.3-.8-.1-.8.4-.4.8.1.5-1,.7-.5.9-.6.6-.5.5-.6.3-.8.4-1.6-.2-2.8-1-2.4-2.7-4.4-.7-.6-.1-1.5-2.6-7.3h-.5v1.9h-.5l-1-3L291,499l-4.1-5.1-.7-1.2-.3-1,.1-2.7.5-2.4v-1.1l-.5-.9.5-.4,2.5,2.1,1.6,2,.7-.5.6-1.1,1-2.5.2-1.3.1-1.2-.1-1-.2-.7-1.2-1.7.1-.6,1.6-.5.2.4.7.5.2-1-.2-1-.6-.7-.8-.5v-.5l1-1.7.3-1.1.1-1.4.8-1,.3-1.5-.1-1.5-.5-1.1-2.3-1.8-1.2-1.4-.7-.5v-.7l.4-1.4v-.9l-.2-.8-.5-.4-.6-.2-2.3-1.3-1.6.4-1.3,1-.8,1.1.5.9-.6.1-.9.4h-.4v-1.7l.1-.8.3-.8-2.7-6-1.4-1.8-1.9-1.9-1-.7-1.7-.4-.6-.5-.8.2-.2.4-.1,1.1-.6.3-.3-4.7.6-1.9,1.8-.8.8-1.2-.8-2.6-2.1-4h-.5l.5.8.5.5v.5h-.5l-1.2-1.6-4.9-5.3-.7-.4-1.2-.1-.7-.4-.4-.9-.5-.8-1-.3.5-.4-.9-.3-.8-.6-1.1-1.5-.5-.1,5.1-16.4,1.6.4,1.4-.3,1.3-.7,1-1.3.6-1.7-.2-1.5-1.5-3-.6-2.1-.3-2.9.4-2.4,1.6-.9.7.3,3.4,2.9.6.8-.3.7.2.5.8.2,1.8,2.6.5.9.9,3.4.7.7,1.5-.1,1.7-1.4,3.1-3.1,9.4-5.9,2-1.8-.5-1.2-1.3-1.3-.9-2,.2-.8,2-2.6,1.7-3.8,1.4-1.5,2.1-1.1,2.2-.7,2-.4h2.5l.4-.3L307,372l-.7-.7-.7-.5-.6-.6-.5-1-.1-1.6-1.4-5.3-2-3.8-2.4-3.5-1.4-3.1-.5-.7-.9-.3-.9-.1-.8-.3-.8-1.2-.6-2.4-.5-4.7-1-2.3-1.1-1.9-.7-.6-1.1-.4-2.1.2-.6-.4v-1.6l.6-2,2.6-2.8.8-1.7v-1.2l-.4-.7.1-.5,1.1-.7,1.1-.3,1.1-.1.7-.5.1-1.2.4-.6,1.1.6.6,2.5.8,1.3.9.8.6.8.6,1,.5,1.3.6,2.6.5,1.5,4.4,3,3.4,1.3,1,.8.7.8,5.4,9,1.5,1.1.9.2h1.9l.3.1Z"/><path id="COL1416" class="cls-1" d="M549.3,145.4l.2,1.9-1.3,3.9-.3.6-.8.5-.9,1.2-.3.3-1,.3-.4.7.2,1v.8l-.1.8-.2,3.6-.4,1-.4,1.7v.7l.1.5.8,1.3.3.9.4,2.8,1.4,5-.1.8-2.2,3.3-.4,1,.6.3,1-.1,1,.1,1.2.3,1,.5.7.8.2.9-1,1.4-.7.7-1.8,3.4.6,1.3.3,1,.4,2.5v1.1l-.2,1,.2.6.3.3.7.4.5.6.1.6-.5.7-1.6.7-1.9.6-.5.2-.7,1.7-.5.4-.9.1-.8.1-.7.3-.9,1.1-1.1.5-.9.2-2.4,1.7-2.6.8h-.7l-1.1-.3h-.6l-.9.3-2.4.5-.9.3-.9.8-1.3,1.3-.5,1.2-.7,1.8-.6,1-2.1,2.2-1,1.5-.7.7-.7,1.5-1.2,1.6-.4,3.2-.6,2.2-.2.7v1l.2.8,2.1,3.7,1.8,2.8.7.9.9.4,1,.7,1.1,1,3.9,5.3.7.5,2.9,2.7.3,2.3-.4,1.1,1.7,3.2,2.2,6.5-1.1,1.4-.8-1.2-.4-.2-.5.1-2.8,1.6-.5.3-1.3-.1h-2.5l-.6-.3-.9-.7-.5-.1-1.1-.1-.7-.2-1.1-.2-1.5.2-1,.4-1.2.7-3.2,3.8-2,1.4,3.7,2.2,2.9,2.7,1.4.8,1.2,1.1.4,3.8.7,1.4,1.2,1,.4.4.3.5.2,2.4.1.6v.8l-.7,1v1l.5.9.9.4,2.6.5,1.1-.1h.5l.3.4.1,1.3.3,1.4.9,1.4,2,2,1.7,2.3-1.6,2.6-.7,2-.7,1.2-1.8,5.6-.8-1.8-.1-2,.8-2-1.9-.8-5.6-.3-2.2-1.2.4-1.1-.6-.8-.9-.7-.7-.7-1.1,1.6-2.1.2-2.3-.6-1.9-.8.8-.6-.9-.8-2.8-1.6-1-1.3-1.8-2.8-1.2-.8-2.6-.1-.5-.6-.1-1.9-.5-.7-1.3-.7-1.5-.5-1.3-.1-.7.2-.6.4-.6.2-.9-.4-.3-.6-.5-1.8-.3-.4-2.2-.2-1.1.1-1.1.6-.7,1-.4.4H485l-.7-.2-.6-.5-.4-.6-.6-2.2-1.1-1.2-2.1-1.4-.6-.5-.4-.6-.4-.6-.1-.9-.2-.5-.5-.5-1.1-.6-.3-.1H475l-.4-.1-.3-.4-.3-1-.3-.5-.8-.5H472l-.9.3-.9.5-1.3-1.8-.5-.6-2,.3-.4-2.6,1-6.1.8-2.7-.2-1.1-.8-1.1-1.8-1.6-.6-1-.2-1.4.3-1.3.5-1.5.3-1.4-.4-1.2-2.3-2.1-.6-.9-.6-1.3-.3-1.4v-3.2l.1-1.5.4-.9.7-.5,2.4-1.2.8-.6.4-1,.2-1.8-.3-.6-.9-.5-.2-.2-.9-2.1-.6-.8-.8-.7-2-.4-.5-.2-1.3-.9-1.1-.4-.8-.8-.3-1.9.2-1.5.9-2.2.5-2.4.5-.9,3.5-7,1.1-1.3.8-1.2.4-1.5.4-3.1,1.2-2.5,3.9-2.7,1.3-2.3.2-1.5-.2-4.4.5-5.8v-1.4l-.2-.6-1.1-3.1-.1-.8.3-1.6.6-1.3.3-1.2-.3-1.3-.6-.8-.8-.7-.6-.9-.5-2.8-.5-1-1.5-1.8-2.8-2.6-.6-.9-.2-1.1.4-.5,1.7.9,5.1,1.7,6.5,2.7,5,1.7,3.3.8,3.4.5,4.6.4,4.5-.2,2.6-.4-1,.8-3.3.6-6.5-.2-1.5-.3h-.7l-.8.3-.2.6.1.8v.7l-.6.3-.3.9.8,2,1.6,3.2-1-.6-1-1-.9-.7-.7.8-.5-.6H482l-1-.5-.5.3-.5,1.1-.4,1.4-.2.9v2.1l.1,1,.4.5.9-.3.4-1.1.3-1.2.7-.8v.8l.2.4.5.3h.7l-.1.7.1,2.6,1,.4h1.1l.8-.6.3-1.2-.7.4-.6-.1-.4-.7-.2-1,.3-.9.5-.7.4-.5-.2-.8,1.3.3.9.9.4,1.3.3,3.3.6.8,1,.2,2.7-.2.5-.1.6-.3,1.3-1.3.3-.2.1-.6,2-3.6v-2.4l.7-1.5.4-.9.9-1.1.2-.4.5-2.6.7-1.5,4.2-6.2.2-.5-.2-.8-1-1.2-.2-.6V155l.4-1.1.1-.7-.2-.7-.6-1.2-.2-.7.2-.2.6-.6.1-.8-.4-.4.1-.8.4-.6.9-1.3.9-.9v-.7l.9-1.7h1.1l.8.2.5-.4-.1-1.6h.5l.1.4.4,1,.7-1,.1-.4.5.4h.5v-1.4l.6.6.5,1,.8.3.6-.3.6-1.2.6.6h.5l.1-.5.3-.2.9-.3,1.7.2,1.3.5,1.1.8,1.2,1.1.5.2,3.1.7,2.2,1.3,2.6.8,8.1.6,7.6-.6Z"/><path id="COL1417" class="cls-1" d="M396.8,246.6l.5.1v.4h-1.2l-.7.1-.2-.4.5-.4,1.1.2ZM466,350l.1-3.8-.4-1.1-.8-.9-.9-.6-1.5-1.5-1.9-3.1-2.5-1.9-1.4-1.2h-.9l-1.5.1-3.7,1.3-2.9.9-7.1,3.5-2.5-2.6-2.2-1.5-2.8-1.3-.7-.7-.5-.9-.4-1.2-.4-3.4v-2.9l-1.3-4.4-.2-1.4v-1l.4-1.8-1.3-4.2.2-2.7.5-.6,1.3-1,1.3-1.4,1-.7.7-.3,1-.1,3.4-.9.7-.5.3-3.3.5-.8-.2-.4-1.2-1.8-.2-.5.6-1.3-2.9-2.1L424,290.6l-1.9-2.9-.5-2.9-1.1-.7-1.4-.1-.3-.1-.3-.6-2.5-.6-1.2-1.3-.9-1.3-3.6-1.7-2-.5-.6-.4-1.8-.7.1-4.2,1.7.4.9-.6,2.6-2.3,1.6-3.1,1.3-4.4.1-4-.8-1.8-.8-1-.5-.5-.7-1.3h-1.1l-.9-.7-.7-.4h-1.4l-.8.4-.8.6-.2-.7,3.8-3.8.6-1.8,1.1-3.8v-1.6l.4-1.4.9-1.9.7-2.3.3-1.4v-1.4l.9-3.9.1-2.2-.5-1.2,6.5-3.5-3.1,5.5-.4,1,.2.7.7.3.9.1,1.2-.4,1.1-.1.1,2.3.1.9.6,1.2v.7l-.2.6-1,1.4-.2.6.5.7,1.5.8,5.4,1.8.9.2.9-.5,1.4.1.1,1-.5,1.1-.5,2.2.3,1.6-.2,1.1-.7,2.1-.3,1.3-.1,1.2-.1,1-.5.8-.7,3,1.3-1.1,1.4.5,1.1-1,.5-.5.9-.4,1,.1,1.2.4,2,1.4.9.1.8-.2.8.1,1,.4,2.7,2.2,1.4,1.8,2.9,2.5.8.6h1.9l2,.6-1.4,3.2.2.6.4.5,1.1.4,1.3.3,1.6-.4.8-.4h.5l.6.9,1.4,1,.6.3.3.5-.3.4-.9,1.4-1.4,3.2-.2.6.6.9-.3,1.3v.8l.3,1.3.9,1.9.7,2.9v.9l.2,1,.3.6.7.6.6.3,1.2,1,1.3,2.5,1.2,2.5,2.9,1.8,1.9.8,6.4,4.9,3.2,3.5,3.4,5.2.9.9.4.7v.5l-.9.9-.9,1.6-1.7,1.5-.6,1.4,1.2,7.9.7,2,.8.8-.1.3V332l.2,2,.6,2.3.1,1.2-.2.8-.9,2.6-.5.8-1.1-.1-.6-.2h-.3l-.2.6-.2,1.7-.7,1.6-1,1.1-1.4,1-1.6.5-1.8.1-2.2-.2-.7.2-1.4,1.2-.6.4-1.7.4Z"/><path id="COL1420" class="cls-1" d="M827.1,496.2l-6.7,4.1-2.7.5-14.3-.5-2.1.5-2,1.2-.6.7-2.2-.9-1.1-1.4-.1-1.1-.2-.7-.5-.6-1.6-1.3-1.3-.7-4.5-1.7-.8-.7-.6-1.5-.4-.7-.5-.5-2-1.2-.5-.5-.8-1.1-.6-.5-2.2-1-.9-.2-1.7-.2-2.4.1-1.9.2h-1.8l-1-.1-2.1-.7-1.4-.1-1.7.2-4.7,1.7-2.8,1.4-1.4.4-2.5-.1-3.5.3-5.2.9h-3.7l-.4-.3-2.6-1.1-1.2-.2-1.4.2-1.4.3-1.5.6h-.7l-6.4-.4-4.9-1.8-2.2-.4-3.6.1-1.6-.2-2.1-.8-2.3-.4-1.3.9-1.1-.1-1.1.2-.8-.2-.8.2-1.6,1-2.4,1.1h-2.1l-1.3.2-1,.4-1,.4-2.6,1-1.7.2-1.5-.2h-1.2l-2,.5-1-.2-1.8-.9-.7-.2-1,.1-1.5.6h-5.1l-1.7.4-7.3,2.7-2.1.1-1.2-.1h-1.4l-1.4.3-3.8,1.8-3.7.9-3.8,2.8-1.1-.1-1.7-.3-2.1-1.5-2.7-1.3-1.2-.8-.9-.8-1.7-3.2-2.6-2.7-1.5-2.5L631,485v-.6l.2-.9,1.7-2.8,1.8-1.6.5-1.6v-.9l.4-.7.6-.6.6-.4.6.1.7.6.6.1.5-.4.7-.7.6-.9.6-.5.8-.2.9-.1,1.2-.5.8-1,.6-1,.7-2.4,1.6-12.8.5-1.2,1.5-.7,1.3-1.7.8-2.9,1.4-2.5,2.5-6.5.7-1.4.6-1.9,5.5,1.3,2.2.2,1.1-.2.7-.4.7-.6.8-.5h.8l.7.1.4-.2-.2-1.2,2-.1,1.6-.3,1.5-.1,2,.5-.3-1.1.4-.5.9-.1,2.3.1.5.4.4.5.8.6h.4l.5-.1.9-.6.6-.1.3.3.4.6,1.3.1.1-.2,1.2-.3,1.5.4,1.3,1.1.8-.3,1.8-.8,1-.2,1.1.1,2.2.6,1.1.1,2.8-.5,1,.1.6.4.2,1.7.3.7.9.4h3.3l.8.4.5.5.7.1,1.2-.3.8-.6.6-.7.6-.4,4.8.6,3.6-.5,3.4-1.2,2.8-2.1.7-.9.3-.7.6-.3,1.4-.1,2.5-.8,3-.3,4-.9,2-.1.4.3,1,.8.6.2,2.3.5h1.1l1.9-.6,1.1-.2.5.4,3.4,4.4.6.4,1.1.2.7.1,1.6-.3.6.1.3.2.6.8,1,.3,7,3.4,2.1.1,3.8-2.2,2.5-.6,2.5-.1,1.9.5,2.2,1.9L804,467.9l5.1,6.5,17.3,21.8Z"/><path id="COL1421" class="cls-1" d="M655,435.9h-2.7l-1.3-.7-1.3-.5-1.9-.5-5.5-.1-1.4.5-.4.4-.3.6-.2,1-.5.6-.6.6-.6.4-.7.2-.4-.3-.5-1.3-1.5-.4-1.2,2.4-.7,1.9-.7,1-.8,1-1.8,1.7-1.2.7-1.2.2-1.5-.3-3.8-2.1-1.7-.3-.5.9-.6.7-.4.3-1.3.1-.3-1.8.3-2-.1-1.1-.2-1.6-.3-.7-.3-.6-1.1-.2-.9.1-.7.3-1.9.4-1.5-.3-.3.1-.5.9-.5.5-.2-.2-.3-1-.3-.7-.5-.2-.9.1h-.8l-.4.1-1.6.8-1.8-1.5-.8-.5-.7-.8-.5-.3L599,434l-1.5-.2-1.8-.8-.3-.2-.4-1,2.5-3.9.8-1.2.5-.9-.4-1.2.1-1-.2-.9-.7-.3-.4-.3-.7-1-1.2-1.7,2.5-3,.1-3.8-.9-.4-.1-.6-.7-.8-2-3.1-.4-1.3.2-.9-.2-1-4.8-3.8-.6-1-.3-.9-.5-2.2.1-.7.2-.7-2.4-.5-1.3.4-.7.5-1-.3-1.6-.1-.7-.3-.7-.1H578l-2.1-.3-1.3.1-1-.4-.8-.1-.5.1-.6.5-1,1.6-.7,3.1-.2.5-3.2-.3-2.2.1-1.3-.2-.7-.2-.3-.7-1.2-.7-3.7-.5-1.3-.3-1-.4-1-.6-.5-.5-.8-1.3v-.6l-.2-.4-1.7-1.9-1.6-1.4-1.6-.8-1.2-1-1-1.2-.7-.7,2.5.5.7.3.5.3.8.9.5.5,1.3.3.5.3,1.3,1,.7.3.6.1.8-.2,2.1-1,1.3-.9,1-.9.7-.9.8-.8.6-1,1.5-2,.3-.6.2-.7.1-1.4-.2-2.4.3-1.2.3-.8.5-.4,1.2-.5.8-.6.6-.7.9-1.2.2-.9.1-.9-.2-.9-1.1-.5-.9-1.2-2.9-.3-.9-1-.3-.9.1-1.7-.1-1.1-1-2.3-.9-.6-.3-5.3.2-1.5.5-1.4.8-1.3.5-2,1.1-2.4.9-4.3-.2-3-.5-.4-.7-.5-1.6-.2-.9-.1-.6.1-.3.8.3,1.1.5,1.1.4,2.6-2,1.6-1,1.5-.3.2-.7-.6-.2-1.6-1-.7-.4-.3-1-.4-1.5-.2-.1-.3.1-.5,1.6-1.8.8-2.9-.5-.9-.4-.2-1.3-3.1-1.9-2.7-.7-1.7v-1.4l.2-.9.4-.8.9-1.4,1-.9,2.4-1.9.7-.7.2-.5-.2-1.1.2-.5.4-.4,1.7-1.1,1-.9.3-.7-.1-.7-.5-1.6-.9-3.4.5-1.9v-.5l-.3-2.7.9-9.4L558,293l1.3-2.3.6-.3,3-.7,7.4-.2,2.8-.3,2.4-1.2,2.3-2.2,1.2-.8,1.7-.5,1.5-.9,2.9-2.7,1.6-.1.4.6.8,2.4-.3.9.3.6.8.9.2,1.7-.1,2.8.3,1.5,1.2,1.7,1.3.3,1.4-.5,2.3-1.5.5-.3.8-.3.8.1.6.2h.5l.5-.6,1.3,1.2,1.1.7.3.8-.9,1.6,1.1,1.3,4.2,16.1,3,11.7,1.4,2.3,6.5,7.1,6.9,7.4.8.7,1.3.4.6.4.8.8.7,1,.4,1.2.2,1.1-.1,1.1-.6,2.2-.1,1.1.4,1.6,2.2,4.2,1.5,4.6.1,2.6-1.1,1.6h-1.1l-1.5-.3-1.2.2-.7,1.2-.3,1.3-.6,1.1-.8.9-1,.9-1.4.6-.6.4-.3.8.3.6,1.4,1.7.5.7.3,1.2.2,2.9-.2,1.2-1.3,4.2-.6,7.1.2,1.4.9,2.6.2,1.3-.3,1.5-.5,1.4-.5,1.4.3,1.6,1.8,3,2.5,1.8,2.9,1,3.3.6,5.5-.1,2.3.6,2.3,3,.4.3.1.3-.6,2.8-.1.6.2,2,.5,1.9.7,2,3.7,7.1,1.2,1.4.8.5,1.8.8.9.6,1.6,1.3.8.4Z"/><path id="COL1422" class="cls-1" d="M798.7,502.7l-1.4,1.5-1.5,2.3-4.8,11-1.1,1.9-2.9,3-.3.9-2.3,3.6-1.6,1.6-2.1,1.6-2.2,1.4-2,.9-2.8.6-5.3.2-2.5.5-4.2,1.7-1.5.2-1.4.5-4.3,3.2-4.5,2.4-1.4,1.1-1.2.8-2.9,1.2-1.1,1L743,547l-.2,3.2-.6.7-1.1.4-11.8,10.3-1.2.6-2.6.7-1.1,1.2-4.5,10.7-1.4,2-.8.7-1.8,1.7-.9.4-.9.2-1.1.5-1.9,1.1-3.2,2.6-.6.5-4,.6-19.5,8.4-5.3,3.7-2.8,1.4-6.1,1.8-.8.1h-.7l-.7.1-.7.5-5.3,5.7-5.1,4.3-2.6,1.6-2.5.7-1.4-.4-.7-1-.6-1-2.5-1.6-.8-.3h-.7l-10.8,2.4-.9.4-2.9,4.5-1.5.4-1.7-.3-1.3-.9-3.2,1.8-1.6.5-.7-1.1-.4-.4-.8-.4-1-.3-.8-.1-.4.4-1.4,2.7-.6.2-.8-.7-.5-.3-.6.5h-.5l-2.6-.4-.6-.1-.6.3-.9.8-.4.3-.7.1-.5-.1-1.5-.9-.4-2.4-.5-.2-1.1.2-.5-.1.2-1.4-.4-.6-.1-.4-.2-.6-1.1-1.3-.3-.8-.6-.3h-1l-6-6.4-4.6-8.4-3.1-3-.4-.7-.4-2,.2-1.2-1.3-4,.2-1.3,1.1-2.9.2-3.1,1.1-4.4.3-.6,1-.1,2.5,1.1,1.6-1.8,1.1-1,.4-.8.4-1.5,1-1.9-.5-.9-1.6-1.3-.7-1.2-.3-.9v-1l.3-1.5.4-.9.5-.6-.2-2.4.5-.6,3.8-5.2,1.1-1.3,1-.9.8-.4,1.5-1.3,1.4.6.5.6,1.6,2.4,1.3,1,1.9,2.5,1.3.1,3.9-3.5,2.8-1.6.9-1.5,1.5-2.5,7.4-8,1.6-1.8.8-.4h.7l.4.3.4.6.6,1.1.5.5,1.5,1.1.8.6.6.1.5-.4.9-4.7.6-1.3.9-.8.5-1.7.3-1.2.3-.7.5-.5.5-.2,1-.9-1.6-1.3-1.5-2.2-1.4-1-.5-1.6-2.7-2-6.4-3.4V513l.4-.5.6-.6,1.1-.4,1.5-.3.3-.5,1.5-5,.6-3.4.9-1.8.2-1.3-2-2.1-.4-.8-.3-.9-.4-.9-.4-1.6-.4-.5-1-.5-.2-.5.1-.7,1.3-4.3,2.8-4.5,2.2-1.2-1.7,2.8-.2.9v.6l.3,1.7,1.5,2.5,2.6,2.7,1.7,3.2.9.8,1.2.8,2.7,1.3,2.1,1.5,1.7.3,1.1.1,3.8-2.8,3.7-.9,3.8-1.8,1.4-.3h1.4l1.2.1,2.1-.1,7.3-2.7,1.7-.4h5.1l1.5-.6,1-.1.7.2,1.8.9,1,.2,2-.5h1.2l1.5.2,1.7-.2,2.6-1,1-.4,1-.4,1.3-.2h2.1l2.4-1.1,1.6-1,.8-.2.8.2,1.1-.2,1.1.1,1.3-.9,2.3.4,2.1.8,1.6.2,3.6-.1,2.2.4,4.9,1.8,6.4.4h.7l1.5-.6,1.4-.3,1.4-.2,1.2.2,2.6,1.1.4.3h3.7l5.2-.9,3.5-.3,2.5.1,1.4-.4,2.8-1.4,4.7-1.7,1.7-.2,1.4.1,2.1.7,1,.1h1.8l1.9-.2,2.4-.1,1.7.2.9.2,2.2,1,.6.5.8,1.1.5.5,2,1.2.5.5.4.7.6,1.5.8.7,4.5,1.7,1.3.7,1.6,1.3.5.6.2.7.1,1.1,1.1,1.4,2.2.9Z"/><path id="COL1423" class="cls-1" d="M717.5,715.8l1.5-.3,1.2.7,1.2.2,1.3.3.2.5-.2,1.4v.6l.4.3.4-.2.3-.6v-.9l-.2-1,.2-.8h.5l1.2.8.8,1.3.6.4.4-.4-.1-.9.4-.6.6-.1.9.8.1.9-.1.7.1.4,1.7-.8h1l1.1.7.8,1.4.6.3,1.1-.2,1-.5.9-.6.8-.2.5.1.3.5v.8l.2.7.4.1,2.8-2.2.4-.6v-.6l-.2-.8-.4-.7-.1-.6.2-.4h.7l.6.5,1.7,2h.5l.8-.9,1.4.1,1.1.2,6.3,3.8-26.6,11.1-.9.6-.1.6.7.7,3.8,1.2,3.4,1.8,1.6.4,1.5.8,1.4,1.5,3.3,4.7,2.8,5.4.8,2,.9.9,1.3.9,3.4.9,1.4.4.4.1.7.3.5.7.1,1.4,2.5-.4.5-.3,1.8-.6h1l3.6,1.2h.8l1.6.9.9.4.7-.3.2-.6-.1-.6.1-.4.4-.2H771l1.2-.4.8-.1.9.7.7.2h1.6l2-.6.7-.1.5.1.4-.1.3-.7.8-.2,2,.1,1.1-.3.8-.6h.7l1,.7,1.1,1.9L789,759l.3.5v.4l-.3,1-1.7,1.1-.6.7-2.6,1.6L782,766l-.1,1.4-2.9,2.1-1.6,1.5-.8.6-1.2.6-3.9.4-3,.8-2.3.8-1.4.1h-1.2l-.7.3h-1.1l-2.7.4-1.2.6-1,1-.6.5-.9.4-2.5.5-1.4.6-4.5,1-2.1,1.1-1.2.2-1,.1-.9-.1-.8-.3-.6-.4-1.5-.4-.9.2-2.5-.3-6.2.2-1.1-.2-.5.3-1,1.4-2.8,2.7-1.7,1.2-2.2,1.2-3.5,1.2-5.5,3-3.2,2.3-1.2,1.3-1.4,1.2-1.2.7-1.2-.2-.7-.2-1.3-1.4-2.3-.9-1.9-1.5-1.1.3-.3,5.6-.3,1.9-.4,1.5-1.8,2.3-.6,1.1-.6,2.3-1.4,3.3-.8,1.5-.4,1.7-.5,1.9-3.1,7.3-.5.6-.2,1.3V827l1,1.7.2.6.8,1.3.5,1,.6.7.3.9-.2.6-.7.2-.8-.3-.5-.6-.2-.8-.3-1.4-.3-.3-.4.1-.4.4-.1.9.1.7-.1.5-1-.2-.5.3-.2.6v1.5l-.1.6-.8,1.7-.7,1-1.3.9-3,3.2-.8.2-.7-.1-.9-.3-1-.2-1.3.3-.9.8-1,1.5-.5,1.2-.5.9-2.1,2.2-2,1.6-12.7,13.2-2.8-.3-.6-.4-.4-1.4-.4-.6-.5-.4-3.1-1.1-1.2-.3-4.6-.3-.5-.6-1.2-2.7-.6-.6-1.9-.6-.7-.7.1-1.1.3-1.2.1-1-.5-1.4h-.5l-.5.5-.7.2-.7-.3-.3-.4-.2-2.1-.5-1.3-.9-.3-1.1-.1-.7-.5-.4-.9-.2-1.1-.1-2.1-.3-1.2-.7-1.1-3.1-2.9-.9-.4-2.2-.3-1.7-.5-5.5-3.6-1.9-1.7-1-.6-2.2-.9-2.4.5v.6l-1.5,2.3-1-.8-.9-1.2-1.1-.7-.8-.3-.5.2-.2.6-.3.3-1.2.3-.5.2-.9,1.1-.2.7-.2,1.1-.5,1.2-.2.7.3,1.3v.8l-.3.9-.4.8-.9.6-2.1.9-1,.9-1.4,1.5-1.5,1.2-1,1.6-1.5,1-1,.4-1,.1h-1.3l-3.6-1.1-1.4-.9-1.3-.9-.7-1-.4-1-.4-.8-.8-.5-2.5-.8-1.8-2.3-6.8-6-3.4-3.9-.2-1.6-.1-1.5-.1-.9-.8-2.2-.6-1.1-1-1.2-1-1.9-1-1.1-3.4-2.6-1.1-1.1-6.8-10-.1-.9-.5-1.8.9-1.2.2-32.5-.1-8.6.3-2.7.5-.6.6-1.2.9-1.3.1-.6-.2-.5v-.7l.6-.6.8-.5.5-.3.4.1.1,1.1.4.5h.5l.8-.2,2-1.2h.4l.3.3.7,1.3.3.4,2.2-.3.6.2.5.4.4.1.3-.5.4-2.1.8,1.5-.1.8v.8l.2.5.3.1,1-.9h1.2l.5.3.3.6.4.1.6-1.2.3-.5h.8l.4.4-.1.9.2.4.5-.1.7-.9.6-.2,1.7.6,1.1-.3,1.7-.1.6-.4v-.6l-.4-.5v-.4l2.2-1.1,1.1.5,1.7-.3.4.2.4,1,.5.4h.6l.7-.3.3-.5V748l.4-.3.5.2.9.6.5-.1,1-.9,1.3-1.1,1.1-.3h.6l.4.4.7.1.9-.6,1.4-1.1,1.2-.6.4-.7.6-.5,1.5-.3.2-.6-.3-.7-.7-.7.3-1.1,1.2-.6.4-.8.5-.9,5.8-3.3,1.3-.4.7.1.7,1,.6.4.6,1,1.7.4.9-1.1.6-1.4.8-.7,2.2-.5.8.4.5,2.3.2.5.4.3.7-.2.5-2.8.9-.9.7.4,1.1,1.9.5.4v-1.9l.2-1.4.8-.8h1.7v-.5l-.8-.5-.5-.6.1-.7h.5l.5.3,1.4.2.8.2,1.5-1.3.6-.3,2.4-.1,1.2-.3,1.1-.6,2.6-2.3,1.2-.1,2.6,1.5.4-1.4.6-.9.8-.1,1,1,.8,2.3.3.4.3-1.3-.1-1.4-.1-.7.2-.5.9-.6.9-.5.9-.2.9.1.1-1.6-.2-1.2-.1-1.3.3-.9.8-.4,2.6-.5,1.4-.4,1,.3.9,1.6,1,.8,1.5.4,2.6.2.8.7.3-.3.5.8.9.1.9-.3,1.3-.3.2-.2,7.2-1.4,1.4-.7.7-.8.9-.5.6.1.4.5.5,2,.7.4.6-.7.2-1.2v-2.1l.3-.4.6.1,2.5,2.4.9.3.8-.4,1.1-1.1.4-.1.2.4-.1,1.9.3.7,1.4.2,2.9-1.3.7-.7.5-.7.8-.2h.9l1.7-.2,1.4.2,1.5.5.8-.3.9-1.3h.5l2.3,1.4,1.3.6.8-.1.5-1.4.4-.5.6.1,1.2,1.1.6-.2.4-.6.4-1.8.4-.6h.6l.6.5.3,1,.5.8.6.4h1.1l.7.2.8.5h.7l.8-.2,2.3-1.8.6.1.7.5.7.6.7.2.7-.4.4-.5.6.2,1.4.7,1.3-.3Z"/><path id="COL1424" class="cls-1" d="M799.6,793.9l-2.4-1.3-3-.9-3.2-.2-2-.8-3.4-1.7-7.2-6-.4-1,.1-1.2,2.9-7,.7-3.5.2-2.9.1-1.4,2.1-1.7,2.6-1.6.6-.7,1.7-1.1.3-1v-.4l-.3-.5-1.4-1.5-1.1-1.9-1-.7h-.7l-.8.6-1.1.3-2-.1-.8.2-.3.7-.4.1-.5-.1-.7.1-2,.6h-1.6l-.7-.2-.9-.7-.8.1-1.2.4h-1.2l-.4.2-.1.4.1.6-.2.6-.7.3-.9-.4-1.6-.9h-.8l-3.6-1.2h-1l-1.8.6-.5.3-2.5.4-.1-1.4-.5-.7-.7-.3-.4-.1-1.4-.4-3.4-.9-1.3-.9-.9-.9-.8-2-2.8-5.4-3.3-4.7-1.4-1.5-1.5-.8-1.6-.4-3.4-1.8-3.8-1.2-.7-.7.1-.6.9-.6,26.6-11.1,2.2-1.8,5.6-2.3,1.6-1,.8-.9.2-.9.2-.7.6-.8,3.5-2.2.4-1.2-.1-1.6-.3-1.3-.6-1.2-.1-.6.2-.4.8-.2.7-.4.3-.6-.1-.6-.6-.5-.7-.2-1.5-.3-.3-.4.3-.4,1.2-.9,1.1-2,1.5-1.8.9-.8,1.6-.9.2-.5.6-.3.9.9.6.1.8-.3.2-.8-.2-.8.1-.9.2-.3.4.1.2.4.4,1.2.4.2.7-.3.2-.9-.1-.9-1.1-1.9.2-1.2.5-.4,1-.2.2-.3-.2-.6-.6-.8-.9-.7-.6-.9-.1-.9,1-1,.4-.8.3-.8.4-.3v-1.7h2.7l.8-.6.5-2.9.4-1.1-1.5-2.1-.4-.7,1.3-.3,1.9-.1,1.6.2.8.5.2.4.7.4.9.2.7.1,1.8-2.7.6-.7.9-.5,1.3-.2.5.3.6.7.7,1.4.5-.6.7-1.3,1.1-.2,4.6.2,1.7-.3,1.1-.4,1.1.1,1.4,1,1.1,1,.7.4.4-.7.3-3.5.4-.7h.9l1.2-1,.3-2.6-.1-.7-.5-.5.2-.7.6-.4,1.3-.1,1.1.1,1.5-.1,1.5-.2,2-.9,1.3-.4,1.1.3.7.7.5.7.6.3.6-.3,1.1-.4,1.4-.2,2.6-.9,1.4.1,1.1.8h.5l.1-1,.5-.8.9-.2.9.5.5.8.5.6h.8l.7-.1.5.1.8.9,1.2.5.4.3.1.5-.1.9.1.2.6-.1,1.5-1.2.9-.2.6.3,1.2.9h.5l-.2,1.9.3.3.4.6.5.4,1.1-.4.5-.5.9-1.6.8-.6.9.3,4.4.6.8-.5-.1-2.7.5-1,.8-.3,1,.3.1.8.6.2h.9l2.3-1.2.8-.2.6.4.8,1,1.5-.1-.1-1.1-.3-1.4.9-.7.7.1,1.3.3h.7l.9-.3.2-.7v-.9l.1-.8,1.9-.4,1.5-1.3.8.2,1.2.5,1.1.4,2.1-.2.8-.5.7-.7.6-.4.9.1.7.5.7.2.4-.3.5-1.1.8-1,1.1-.9,2.1-.4.3-.8.7-.5.8-.2h.5l-.7-1-.1-.8.4-.9,1.4-.2,2.9-.1.6-.4.2-1.1.5-1.1.7-.8-.3-.8-.9-1-.1-1.2,1-.5,1.5.1,2.9.4,1.5.7.4,1.4.1,1.6.5,1,2.7-1.5,1.6-.5.8.8-.2.7-.4.7-.2.6.4.6.9.2.9-.6,1.5-1.7.6-.8.7-1.7.6-.8.9-.2.6.6,1,1.7,1.3,1,.9-.4,1.5-2.5.3,1.1.2,2.3.4.8.8.1.9-.4,1.6-1.1,2.5,1.4,2.5,1,2.5-.2,2.8-1.9,3.3-4.6.9-.7,1.2-.5.5.2.5,1.6.3,4.2.3,1.5,2.7,4.6.6,1.7.4,3.3.4,1.6,1.2,1.4,1.3.7h1.3l1.2-.2,1.4-.1,2.5,1.2,1.9,2.5,4.6,11.8.9,1.4,1,.6,2.5,1,2.2,2.4-.3,2.8-1.7,2.8L964,689l-.8.6-.7.2-1.5.3-.8.4-4.1,3.9-21.9,20.2-1.1,1.9v4.6l1-.8.5-.9.7-.8,1.3-.4,1.5.1.7-.1,1.3-.6.6.2.7.8,2.8,1.4,1.7.3,1.3-.5,1.3-.3,1.2,1,1,1.5.4,1.2.4,3.1.4,1.4.8.7h3l1.3.4,1,.9.3.6.4,1.2.3.5.6.5,1.4.7.5,1,1.1,1.3.3.3.8.2.5.6.3.8.5.7.6.4,1.5.9.6.5.3.7.3.9.4.8.6.4.8.2.7.5,1.3,1.3.6.4,2.4.7,2.2,1.4.6.5.2.7v1.3l.4.6.4,1.3L978,753l-1.3,1.2-.7.9v1.2l1.1,2.6.4,2.1,1.2,2.9.5.9,1,.5,1.3.4,1,.5.4,1.1.2,3.7-.2,1.1-.3.5-1.1,1.4.2.9.5.7.5.5.5.9,1.2.9.3.5.2.7,1.2,2.3,5.8,15.3.2,1.5v3l.2,1.3.7,1.5,1.4,2.3.7,1.5.2,1.5-.4,2.7.2,1,.7.7.7.6.7.7.7,1.3.5,1.7.1,1.6-1.2,2.5.3,1.6,1.4,2.9-2.6.5-10.2,2.8-1.4-.2-.5-1.7-.3-3.5,1.7-19.4-.7-4.2-2.3-7.1-2.6-5.3-7.3-9.7-1.6-2.9-2.1-5.2-1.4-2.5-1.7-1.7-1.1-.5-2.8-1-1.1-.1-.6.3-1.1,1.2-.6.3-2.4.3-1.1.8-1.9,1.5-2.6,1.3-5.1,5.4-8.1,10.9-2.1,1.9-2.6,1.5-2.2.8-2.4.6h-2.4l-2.3-.6-2.2-1.9-1.9-2.6-1.3-2.9-1.5-4.3-.7-1.3-1-.9-1.5-.6-1.4-.3-.5-.2-.6-.6-.1-.5v-1.3l-.3-.4-.6.4-4,10.1-1.3,1.9.4.3,1.7.2.6.8-.1,1.5.1,1.2,2.5.1.6.4.2.5-.1.9.2.4.6.4,1.1.6-56.2.1H832.5l-2.8-.4-5.1-2.1-4.8-1.1-2.6.2-4.6,2.1-2.8.3-1.4-.3h-1.2l-1.2.3-2.9,1.5-1.2.3Z"/><path id="COL1425" class="cls-1" d="M717.5,715.8l-1.3.3-1.4-.7-.6-.2-.4.5-.7.4-.7-.2-.7-.6-.7-.5-.6-.1-2.3,1.8-.8.2h-.7l-.8-.5-.7-.2H704l-.6-.4-.5-.8-.3-1-.6-.5h-.6l-.4.6-.4,1.8-.4.6-.6.2-1.2-1.1-.6-.1-.4.5-.5,1.4-.8.1-1.3-.6-2.3-1.4H692l-.9,1.3-.8.3-1.5-.5-1.4-.2-1.7.2h-.9l-.8.2-.5.7-.7.7-2.9,1.3-1.4-.2-.3-.7.1-1.9-.2-.4-.4.1-1.1,1.1-.8.4-.9-.3-2.5-2.4-.6-.1-.3.4v2.1l-.2,1.2-.6.7-.7-.4-.5-2-.4-.5-.6-.1-.9.5-.7.8-1.4.7-7.2,1.4-.2.2-1.3.3-.9.3-.9-.1-.5-.8-.3.3-.8-.7-2.6-.2-1.5-.4-1-.8-.9-1.6-1-.3-1.4.4-2.6.5-.8.4-.3.9.1,1.3.2,1.2-.1,1.6-.9-.1-.9.2-.9.5-.9.6-.2.5.1.7.1,1.4-.3,1.3-.3-.4-.8-2.3-1-1-.8.1-.6.9-.4,1.4-2.6-1.5-1.2.1-2.6,2.3-1.1.6-1.2.3-2.4.1-.6.3-1.5,1.3-.8-.2-1.4-.2-.5-.3h-.5l-.1.7.5.6.8.5v.5h-1.7l-.8.8-.2,1.4v1.9l-.5-.4-1.1-1.9-.7-.4-.9.9-.5,2.8-.7.2-.4-.3-.2-.5-.5-2.3-.8-.4-2.2.5-.8.7-.6,1.4-.9,1.1-1.7-.4-.6-1-.6-.4-.7-1-.7-.1-1.3.4-5.8,3.3-.5.9-.4.8-1.2.6-.3,1.1.7.7.3.7-.2.6-1.5.3-.6.5-.4.7-1.2.6-1.4,1.1-.9.6-.7-.1-.4-.4h-.6l-1.1.3-1.3,1.1-1,.9-.5.1-.9-.6-.5-.2-.4.3v1.1l-.3.5-.7.3H577l-.5-.4-.4-1-.4-.2-1.7.3-1.1-.5-2.2,1.1v.4l.4.5v.6l-.6.4-1.7.1-1.1.3-1.7-.6-.6.2-.7.9-.5.1-.2-.4.1-.9-.4-.4h-.8l-.3.5-.6,1.2-.4-.1-.3-.6-.5-.3h-1.2l-1,.9-.3-.1-.2-.5v-.8l.1-.8-.8-1.5-.4,2.1-.3.5-.4-.1-.5-.4-.6-.2-2.2.3-.3-.4-.7-1.3-.3-.3h-.4l-2,1.2-.8.2H548l-.4-.5-.1-1.1-.4-.1-.5.3-.8.5-.6.6v.7l.2.5-.1.6-.9,1.3-.6,1.2-.5.6-.3,2.7.1,8.6-.2,32.5-.9,1.2-5.6-.9-6.4.5h-2.5l-1.9-.3-39.8-14-2.7-1.9-2.3-2.9-1.5-3.2-.6-3.1v-2.3l.7-2.1,1.3-1.7,1.5-1.6,1-1.4.4-1.2V762l-.7-1.4-1-1.5-4.1-4.6-1.1-1.7-.6-1.9-.3-2.4.1-2.1.4-3.4,3.8-14.9-.1-2.4-.8-1.3-1.3-1-1.3-1.2-1-1.5-1.9-5-.6-1-.9-.8-1.2-.7-1.3-.4-3.2-.4-6.7-2.2.1-.4,1.8-5.2,2.3-4,.7-.9,1.5-1.1,2-.9,1.7-1.8,3.2-2.1,1.2-1,2-3.4.7-2.2.3-2.2.3-5.6.3-2.8.8-2.3,5-6.7,1.4-2.5,1.5-3.7.3-1.9,2,1.8,1.9.1.6-.3.4-.9.4-.5.9-2,4.4-5.4,1.3-2.2.6-1.5-.1-1.4.6-.8,1.3-1.3,1.7-2,.9-1.5,1.3-2.7,1-.7,3.6.9,2.1.1,3.3-3.2,2.4-1.6,1.1-1.2,1.1-.6,1-.2,1-.1,1.1-.3.6-.8.7-1.3,1.5-.8,1.2-.2,4.5-2,.6-.6.7-.5h1.5l.8.2,1.9-.1-.7-2.2-.1-.8v-1l-.5-1.1-1.1-1-.2-1.4.2-1.3-.8-3.6-.9-.9.1-1.4.5-.7.7-.9.5-.4,1.6-.7,1.5-.9.4-.8,1-1.6.6-.6.9-.2.7.2.7.4.7.9.7.6h1l.6.1.6.3.8,1.4.8.9.9,1.3.3.6v.9l.4,1.9,1.4,3.2.1.8.3.5.6.5.8.4,1,.4.8.4.9.2,1.1-.2,1.1-.5,1.7-1.3,4.3-.5,8.2,2.1,1.5.6.8.6.4.8.3.3.8.4,1.8,1.2,1,.5.5-.3.3-.6.2-1.6,2.2-14.6,2.3-16,.7-1.2.4,2,.4.7,3.1,3,4.6,8.4,6,6.4h1l.6.3.3.8,1.1,1.3.2.6.1.4.4.6-.2,1.4.5.1,1.1-.2.5.2.4,2.4,1.5.9.5.1.7-.1.4-.3.9-.8.6-.3.6.1,2.6.4h.5l.6-.5.5.3.8.7.6-.2,1.4-2.7.4-.4.8.1,1,.3.8.4.4.4.7,1.1,1.6-.5,3.2-1.8,1.3.9,1.7.3,1.5-.4,2.9-4.5.9-.4,10.8-2.4h.7l.8.3,2.5,1.6.6,1,.7,1,1.4.4,2.5-.7,2.6-1.6,5.1-4.3,5.3-5.7.7-.5.7-.1h.7l.8-.1,6.1-1.8,2.8-1.4,5.3-3.7,19.5-8.4,4-.6.6-.5,3.2-2.6,1.9-1.1,1.1-.5.9-.2.9-.4,1.8-1.7-.2,105.1v33.2Z"/><path id="COL1426" class="cls-1" d="M799.6,793.9h-1l.5,2.6v4.7l-.2,36.3,1.5.2,2.8-1.8,1.7-.5h.9l.9.2.5.4.1,1.4.8.2,6.4-1,1.6.1,2.9,1,.7.1h2.2l2.1-.3h.7l.6.3.8.9,1.3.8.7.1,3.2-2.3,1-.3,1.1.2,3.4,1.8.9.6,1.2,1.5,1.1.7.5.5.2.6.1.8.2.7,1.4.9-.3,2.5,1,1,1.6.6.8.5.4.5v.9l-.5.4-.6.1-.4.2-.2,1.4.7,3v1.5l-.5.8-.7.5-.4.6.2.9.5.5,1.5.7.5.5.7,1.5.2,1.2-.4.8-1.2.4-.6-.1-1.3-.4h-.7l-.5.3-.7,1-.5.3-1.1.1-2.5-.4-1.2.1.3-1.8-.6-.8-1.2.1-1.5.4-1.4.6-.4-.2-4.8-4.8-1.2-.9-1.4-.3-1.7.2-1.3.6-2.2,1.4-1.2.2-1.4.5-.7,1.5-.9,1.1-2.2-.4-1.9-.9-1,.1-2.6,2-2.3,1.3-2.5.9-2.8.5-4.6.3-1.3.4-1.3.2-1.6-.3H789l-1.4.7-1.3.4-1-1-.5,17.3-.2,7.4-.5,18.2-.1,5.1.4,2.4.8,1.4,2.6,3,3.4,3.1,1.5,2.2.7.6,1.3.5,2.7.6,1.1.8.4.6.7,1.5.5.7.6.4,1.6.8.7.5,2,2.1,1,.9,5.4,2,1.1.6,1.2,1,.8,1.2.6,1.3.3,1.5v2l.1.7.4.7.8,1,.2.9-.4,1.5-2.1,3.2-.5,1.2.7,1.6,2.6,2.9.5.9-.2,1.7.2.7.6,1,.4.4,1,.6.4.7v.8l-.1.6-.1.7.5.9.5.5,1.5.6.6.4,1.5,2.2.4.3,1,.2.5.8-.1.2.3,2.5-.1.8-.5,1.4.1.8,2.5,4,.7,2.1-1.4,3.8-2.3-2.7-.3-.9-.4-.4-1-.4-.9-.1-4.8-2.4-1-.1-3.4,2-.8.1-.5-.4-.5-1.3-.2-1.3.3-1.1.5-1.1.3-1.2-.3-1.1-.9-1.1-2.7-2.4-1-.6-1-.2-1,.4-.6.7-.5,1.8-.8.6h-1.4l-3-1.2h-1.6l-1.1.6-1,.9-1.1.6-1.3-.1-1.1-.9V978l.9-2.1v-1.4l.1-.3.4-.5,1.2-1,.5-.9.3-.8-.4-.6-1.5.1-1.1.4-1,.6-1,.2-2-1-.7.5-.6.8-.9.5h-.6l-.6-.2-1.3-.7h-.8l-1.1.6-1.7,2.1,1,1.6,1.7,1.3.8,1.8-.6,1.3-1.2.7-1.3.2-1.3-.3-3.3-2.6-.6-.7.1-.9.8-1.8.2-.9-.4-.9-.9.4-1.7,1.5-1.2.3-1.2-1-.9-1.4-.4-1.3.2-1.1.8-.8,2-1.3,1.5-2.3-1.4-2.1-2.1-2.2-.6-2.4.7-.9,1-.6.9-.7.1-1-.7-2.1-.2-1.1v-1.2l.4-2.6v-1.3l-.3-1.2-1-.9-1.2.1-1,.4-.7-.1-.1-1.5,1.4-1.9,4.2-3.9.6-.8-.3-.8-1.5-.9-1.5-.4h-1.3l-1.2.4-1.4.7-.7.9.2,1.8-.5.7-1.3.2-3.5-.7-2.9.1-.3-.6.2-1v-1.1l-.5-1.2-.8-1.3-1-1.2-1.1-.7-1.1-.3-3.4.3-.9-.4-1.4-1.7-.9-.5h-.8l-1.5.3-.8-.1-.7-.3-1.9-1.6-1.2-.6-1.5-.5-1.3.1-.7,1.1-.3,1.1-.8.6-1.1.2-2.4-.1-.6-.2-.4-.6-1.6-3.5-1.6-4.5-2.5-3.2-.1-.8.4-.8.3-1.2v-1.2l-.3-1-.5-1-2-2.9-.9-1-.8-.5h-.9l-1.4.7-.8.1-1.2-.4-2.6-1.3-1.3-.4-1.5-.6-.6-1.1-.6-2.8-1-1.4h-1.4l-2.8,1.3h-1.1l-1.1-.1-1.1-.4-1-.5-1.5-1.5-2.1-1.9-2.3-.8-1.5-1-.8-.2-2.1.6-.7.1-.6-.1-1.2-.4-.6-.1-1.1.4-.7.4h-.8l-3.4-2.2-6.8-3.2-.8-.9-1.4-2.4-.8-.6-1.5-.5-.8-.9-.5-1.2-.7-1.2-1-.2-2.1,1.4h-1l-.3-.9.2-1.1.3-1.2.1-1-1.5-1.3-2.6-1.6-2.2-1.7v-1.6l.6-.9.1-1.1-.4-1-.8-1-1.1-.7-.5.2-.3.6-.5.2-1-.8-.5-1.1-.4-2.7-.8-1.5-1.1-.6,12.7-13.2,2-1.6,2.1-2.2.5-.9.5-1.2,1-1.5.9-.8,1.3-.3,1,.2.9.3.7.1.8-.2,3-3.2,1.3-.9.7-1,.8-1.7.1-.6v-1.5l.2-.6.5-.3,1,.2.1-.5-.1-.7.1-.9.4-.4.4-.1.3.3.3,1.4.2.8.5.6.8.3.7-.2.2-.6-.3-.9-.6-.7-.5-1-.8-1.3-.2-.6-1-1.7v-2.4l.2-1.3.5-.6,3.1-7.3.5-1.9.4-1.7.8-1.5,1.4-3.3.6-2.3.6-1.1,1.8-2.3.4-1.5.3-1.9.3-5.6,1.1-.3,1.9,1.5,2.3.9,1.3,1.4.7.2,1.2.2,1.2-.7,1.4-1.2,1.2-1.3,3.2-2.3,5.5-3,3.5-1.2,2.2-1.2,1.7-1.2,2.8-2.7,1-1.4.5-.3,1.1.2,6.2-.2,2.5.3.9-.2,1.5.4.6.4.8.3.9.1,1-.1,1.2-.2,2.1-1.1,4.5-1,1.4-.6,2.5-.5.9-.4.6-.5,1-1,1.2-.6,2.7-.4h1.1l.7-.3h1.2l1.4-.1,2.3-.8,3-.8,3.9-.4,1.2-.6.8-.6,1.6-1.5,2.9-2.1-.2,2.9-.7,3.5-2.9,7L778,782l.4,1,7.2,6,3.4,1.7,2,.8,3.2.2,3,.9,2.4,1.3Z"/><path id="COL1427" class="cls-1" d="M942.4,636.9l-1.2.5-.9.7-3.3,4.6-2.8,1.9-2.5.2-2.5-1-2.5-1.4-1.6,1.1-.9.4-.8-.1-.4-.8-.2-2.3-.3-1.1-1.5,2.5-.9.4-1.3-1-1-1.7-.6-.6-.9.2-.6.8-.7,1.7-.6.8-1.5,1.7-.9.6-.9-.2-.4-.6.2-.6.4-.7.2-.7-.8-.8-1.6.5-2.7,1.5-.5-1-.1-1.6-.4-1.4-1.5-.7-2.9-.4-1.5-.1-1,.5.1,1.2.9,1,.3.8-.7.8-.5,1.1-.2,1.1-.6.4-2.9.1-1.4.2-.4.9.1.8.7,1h-.5l-.8.2-.7.5-.3.8-2.1.4-1.1.9-.8,1-.5,1.1-.4.3-.7-.2-.7-.5-.9-.1-.6.4-.7.7-.8.5-2.1.2-1.1-.4-1.2-.5-.8-.2-1.5,1.3-1.9.4-.1.8v.9l-.2.7-.9.3h-.7l-1.3-.3-.7-.1-.9.7.3,1.4.1,1.1-1.5.1-.8-1-.6-.4-.8.2-2.3,1.2h-.9l-.6-.2-.1-.8-1-.3-.8.3-.5,1,.1,2.7-.8.5-4.4-.6-.9-.3-.8.6-.9,1.6-.5.5-1.1.4-.5-.4-.4-.6-.3-.3.2-1.9h-.5l-1.2-.9-.6-.3-.9.2-1.5,1.2-.6.1-.1-.2.1-.9-.1-.5-.4-.3-1.2-.5-.8-.9-.5-.1-.7.1h-.8l-.5-.6-.5-.8-.9-.5-.9.2-.5.8-.1,1h-.5l-1.1-.8-1.4-.1-2.6.9-1.4.2-1.1.4-.6.3-.6-.3-.5-.7-.7-.7-1.1-.3-1.3.4-2,.9-1.5.2-1.5.1-1.1-.1-1.3.1-.6.4-.2.7.5.5.1.7-.3,2.6-1.2,1H813l-.4.7-.3,3.5-.4.7-.7-.4-1.1-1-1.4-1-1.1-.1-1.1.4-1.7.3-4.6-.2-1.1.2-.7,1.3-.5.6-.7-1.4-.6-.7-.5-.3-1.3.2-.9.5-.6.7-1.8,2.7-.7-.1-.9-.2-.7-.4-.2-.4-.8-.5-1.6-.2-1.9.1-1.3.3.4.7,1.5,2.1-.4,1.1-.5,2.9-.8.6h-2.7v1.7l-.4.3-.3.8-.4.8-1,1,.1.9.6.9.9.7.6.8.2.6-.2.3-1,.2-.5.4-.2,1.2,1.1,1.9.1.9-.2.9-.7.3-.4-.2-.4-1.2-.2-.4-.4-.1-.2.3-.1.9.2.8-.2.8-.8.3-.6-.1-.9-.9-.6.3-.2.5-1.6.9-.9.8-1.5,1.8-1.1,2-1.2.9-.3.4.3.4,1.5.3.7.2.6.5.1.6-.3.6-.7.4-.8.2-.2.4.1.6.6,1.2.3,1.3.1,1.6-.4,1.2-3.5,2.2-.6.8-.2.7-.2.9-.8.9-1.6,1-5.6,2.3-2.2,1.8-6.3-3.8-1.1-.2-1.4-.1-.8.9h-.5l-1.7-2-.6-.5h-.7l-.2.4.1.6.4.7.2.8v.6l-.4.6-2.8,2.2-.4-.1-.2-.7V720l-.3-.5-.5-.1-.8.2-.9.6-1,.5-1.1.2-.6-.3-.8-1.4-1.1-.7h-1l-1.7.8-.1-.4.1-.7-.1-.9-.9-.8-.6.1-.4.6.1.9-.4.4-.6-.4-.8-1.3-1.2-.8h-.5l-.2.8.2,1v.9l-.3.6-.4.2-.4-.3v-.6l.2-1.4-.2-.5-1.3-.3-1.2-.2-1.2-.7-1.5.3V682.6l.2-105.1.8-.7,1.4-2,4.5-10.7,1.1-1.2,2.6-.7,1.2-.6,11.8-10.3,1.1-.4.6-.7.2-3.2.4-1.2,1.1-1,2.9-1.2,1.2-.8,1.4-1.1,4.5-2.4,4.3-3.2,1.4-.5,1.5-.2,4.2-1.7,2.5-.5,5.3-.2,2.8-.6,2-.9,2.2-1.4,2.1-1.6,1.6-1.6,2.3-3.6.3-.9,2.9-3,1.1-1.9,4.8-11,1.5-2.3,1.4-1.5.6-.7,2-1.2,2.1-.5,14.3.5,2.7-.5,6.7-4.1,1.8-.4,3.2-1.5,1.8-.4,1.4.7,2.8,3.3,1.5,1.2,3.9-2.2,3.9-3.9,1.5-.8,1.9-1.9,1.3-.5,1.6-.1,1.4.3,2.5,1.2,1.2-.4,1.5.4,1.6.5,1.5.3,4.3-.2,1.4.2,4.3,1.4,1.5.1,1.4.3,2.8,1.3,1.6.2.9-.4,1.8-1.5.7-.4,4.2-.2,4.9-1.5,1.5-.1,1.4.1,4.4,1.2h2.4l7.7-2.7,2.9-.4,8.6.8,2.8-.4,2.3-.8,1.3-.4.5-.5.4-.7.1-.7.3-.8.8-.2h.9l.8-.1.7-.6,1.2-1.3.8-.4h.6l1.2.3,4.7.4,10.5,2.5,2,1.2,1.8,1.8,1.8,1.4,2.8.2-1.8,1.3-.7.8-.3,1v2.6l2.5,3.9,1.7,1.2.5,1.4.2,1.5-.3,1.2-.8.7-2.4,1-1,.6-3.2,3.5-.6,1-4,3.8-1.6,2.5-1.1,2.7-.5,2.9v3.1l.7,3.9.2,1.4,1.2,1.3.2.3-.2.8-.4.5-.8,1-.8,2.4-.4.4-.8.2-.7.5-1.2,1.4-.6.4-2,.7-.3.3-.7.8-.7.4-1-.1-2.5,2.1-1.7,2.7-.6,2.8.6,2.6.7,1.1.4,1,.2,1.2.1,1.6-.1.6-.6,1.6-.2.8v.8l.2,1.3.2.7.4.6,1.3,1.4.2.5-.1.7-.7.8-.1.4.1,3-.1,1.3-.9,2.6-.4,2.6-.1,1.5.1.5.8,1.6v.9l-.3.8.3.6-.4,1.3-.2,3-.5,1.1-.7,1.1-.3,1.4-.2,3.8-.5,1.8.1,2.1-.1.7-.3.5-.5.3-.4.5-.1.9.2.8.5.6,1.1,1v-.5l1.3.9.5.9.5,2.3.3.3.8.3.3.4v.6l-.4.9-.1.5.3.9.9,1.5.2.9-.2.8-1.2,2.2-.3,2.5.4,2.3.6,2.1.3,2.1.5,1.3,1.3,1,1.3,1.3.5,2.2.8.8.4,1.2-.2,1.2Z"/><polygon id="_0" data-name="0" class="cls-1" points="525.4 663.3 525.4 663.3 525.4 663.3 525.4 663.3 525.4 663.3"/><polygon id="_1" data-name="1" class="cls-1" points="524.8 663.2 524.8 663.2 524.8 663.2 524.8 663.2 524.8 663.2"/><polygon id="_2" data-name="2" class="cls-1" points="437.3 870.9 437.3 870.9 437.3 870.9 437.3 870.9 437.3 870.9"/></g></g></svg>