<svg xmlns="http://www.w3.org/2000/svg" viewBox="0 0 375.93 375.89"><defs><style>.cls-1{fill:#fefefe;}.cls-2{fill:#5372fe;}.cls-3{fill:#5674fe;}.cls-4{fill:#5876fe;}.cls-5{fill:#5775fe;}.cls-6{fill:#5976fe;}.cls-7{fill:#f9fafe;}.cls-8{fill:#f8f9fe;}.cls-9{fill:#fafbfe;}.cls-10{fill:#8b9ffe;}.cls-11{fill:#889dfe;}</style></defs><title>Recurso 1</title><g id="Capa_2" data-name="Capa 2"><g id="Capa_1-2" data-name="Capa 1"><path class="cls-1" d="M188.32,376.25q-92.25,0-184.5,0c-2.35,0-3.42,0-3.42-3.1Q.58,188.32.42,3.44c0-2.68.69-3,3.14-3q184.88.11,369.75,0c2.68,0,3,.69,3,3.14q-.1,184.88,0,369.75c0,2.68-.69,3-3.14,3Q280.76,376.19,188.32,376.25ZM104,202.06v3.74c0,13.25.11,26.5-.08,39.75,0,3.19.92,3.89,4,3.88q79.31-.13,158.62,0c3.21,0,4.2-.67,4.2-4.07q-.18-100.12,0-200.24c0-3.42-1-4.07-4.21-4.07q-79.12.15-158.24.07c-.75,0-1.5,0-2.25,0-1.4-.08-2,.49-2,1.95,0,7.84,0,15.68,0,23.92,3.33-1.72,6.23-3.37,9.26-4.74,13.68-6.24,28.22-7.07,42.91-6.3A74.15,74.15,0,0,1,187,64.37c26.75,14.06,29.83,46.36,14.26,63.12-2,2.2-.44,3.18,1,4.47,11.73,10.82,15.16,24.43,12.33,39.6-3.09,16.54-14.16,26.8-28.93,33.35-19.08,8.48-39.05,8.34-59.18,5.18C118.64,208.87,111.43,205.73,104,202.06Zm3.15,89.35c0,6.62,0,13.24,0,19.86,0,1.47-.05,2.69,2.06,2.63,8.23-.25,16.49.49,24.69-.67,11.46-1.63,18.37-9.26,18.75-20.67.41-12.31-5.52-20.23-17.22-22.68-8.77-1.83-17.67-.56-26.51-.88-2.27-.08-1.74,1.67-1.75,2.93C107.11,278.43,107.13,284.92,107.13,291.41Zm73.2,9.85c2.74,0,5.49-.05,8.23,0,1.5,0,2.28-.41,2.5-2,.56-4.08.21-8-2-11.53-4-6.51-13.87-9.25-22.43-6.27-7.63,2.66-11.93,9.65-11,17.89.79,7.27,5,11.95,11.65,14.09,8,2.58,16,2.24,23.23-2.79.5-.35,1-.74.78-1.51-.63-2.63-6.21-5.54-8.72-4.59-3.86,1.44-7.72,2.11-11.31-.72-.57-.46-1.2-1.06-1-1.88.25-1,1.19-.67,1.86-.68C174.84,301.24,177.58,301.26,180.33,301.26Zm72.13,13.41a23.93,23.93,0,0,0,11.16-2.33c3.9-1.94,6.18-5,6-9.53-.18-4.13-2.52-6.68-7.39-8.33-3.57-1.21-7.34-1.37-11-2.16-1.2-.26-2.79-.5-2.65-2.07s1.76-1.92,3.18-1.83c1,.06,2.42,0,2.82.63,2.52,3.66,5.92,2.06,9.07,1.73,1.27-.13,3.15.57,3.65-1s-.71-3-1.78-4.29a11.83,11.83,0,0,0-3.86-2.9c-5-2.4-10.16-2.47-15.35-1.26-6.37,1.49-9.76,5.72-9.44,11.24.29,5.08,3.78,7.87,10.82,8.65,1.86.21,3.72.4,5.57.66a15,15,0,0,1,2.15.61c1,.32,1.87,1,1.8,2.1s-1.1,1.63-2.12,1.78c-2.66.4-5.39.55-7.06-2.05a2.74,2.74,0,0,0-3.11-1.32,39.89,39.89,0,0,1-6,.47c-3.37-.11-3.45,1.43-2.3,3.9a10.89,10.89,0,0,0,5.85,5.5A22.8,22.8,0,0,0,252.46,314.67Zm-38.39-12.13c-2.15-3.71-2.58-7.22-3.53-10.51-3.11-10.83-3-10.79-14.12-10.42-2.38.09-2.74.78-1.95,2.86,2.12,5.58,4,11.23,6.21,16.79,1.61,4.15,1.7,10,5.15,12s8.73.53,13.21.59c.38,0,.75,0,1.12,0a2.12,2.12,0,0,0,2.49-1.64q5.21-14.19,10.57-28.32c.65-1.72.13-2.28-1.57-2.26a70.57,70.57,0,0,1-8.23-.06c-2.84-.3-3.9.92-4.54,3.49C217.48,290.73,215.81,296.3,214.07,302.54ZM147.93,170.89c6.87,0,10.93-3.79,10.85-10.09-.07-6.07-4.64-10.28-11-10.14s-10.63,4.14-10.62,10.11C137.14,167.16,141.13,170.91,147.93,170.89Zm-6.53-66.67c0,4.72,2.39,7.46,6.44,7.53s6.93-3.08,6.8-7.68c-.13-4.44-2.93-7.49-6.8-7.41C143.72,96.75,141.36,99.52,141.4,104.22Z" transform="translate(-0.4 -0.42)"/><path class="cls-2" d="M104,202.06c7.45,3.67,14.66,6.81,22.43,8,20.13,3.16,40.1,3.3,59.18-5.18,14.77-6.55,25.84-16.81,28.93-33.35,2.83-15.17-.6-28.78-12.33-39.6-1.4-1.29-3-2.27-1-4.47C216.8,110.73,213.72,78.43,187,64.37A74.15,74.15,0,0,0,156.16,56c-14.69-.77-29.23.06-42.91,6.3-3,1.37-5.93,3-9.26,4.74,0-8.24,0-16.08,0-23.92,0-1.46.63-2,2-1.95.75,0,1.5,0,2.25,0q79.13,0,158.24-.07c3.2,0,4.21.65,4.21,4.07q-.18,100.11,0,200.24c0,3.4-1,4.07-4.2,4.07q-79.31-.15-158.62,0c-3.06,0-4-.69-4-3.88.19-13.25.08-26.5.08-39.75Zm143.23,34.71c1.3,1.43,2.88.82,4.41.63l1.69.06c1.7,0,4.29,1.26,4.46-1.65.27-4.72.56-9.5-.25-14.2-.39-2.24-1.83-4.14-4.39-3.65-2.93.57-5.82.12-8.72.31-2.47.15-3.27,1.06-3.2,3.43.13,4.11,0,8.24,0,12.36,0,3.93,1.22,4.53,5.12,2.6Zm-24-9.89c.15,3.09-.21,5.34.67,7.51,1.22,3,3.51,4.31,6.51,3.59,2-.49,3.78-.91,6-.22,2.48.77,4.46-1.46,3.2-3.66-1.51-2.63-.93-5.23-1.15-7.86-.19-2.34.81-5-.5-7s-3.95-.38-5.95-.8c-.6-.12-1.18-.39-1.78-.46-3.63-.4-5.72,1-6.55,4.55A26.32,26.32,0,0,0,223.19,226.88Zm-17.92.79c0,.88,0,1.75,0,2.62.31,6.62,6.57,10,12.34,6.72,1.14-.65,2.33-1.4,1.83-2.86a3,3,0,0,0-3.6-2c-1.68.3-4.29,1.95-4.32-1.06,0-2,2.87-.62,4.41-1,1.37-.34,3.1.61,4.07-1.08,2.17-3.77-1-10.27-5.39-11C208.33,217,205.27,220.17,205.27,227.67Zm-13.69.54c0,1.75,0,3.5,0,5.24,0,2-.68,4.36,2.9,4.28s2.64-2.58,2.7-4.47q.17-5.25,0-10.49c-.06-2.15.15-3.64,2.95-3.35,2.07.21,2.28-1.39,2.29-3s-.53-2.72-2.28-2.74q-5.81-.06-11.61,0c-1.9,0-2.07,1.41-2,2.9s.07,3.07,2,2.86c3.36-.36,3.18,1.71,3.1,3.93C191.53,225,191.58,226.59,191.58,228.21Z" transform="translate(-0.4 -0.42)"/><path class="cls-3" d="M107.13,291.41c0-6.49,0-13,0-19.48,0-1.26-.52-3,1.75-2.93,8.84.32,17.74-.95,26.51.88,11.7,2.45,17.63,10.37,17.22,22.68-.38,11.41-7.29,19-18.75,20.67-8.2,1.16-16.46.42-24.69.67-2.11.06-2.07-1.16-2.06-2.63C107.14,304.65,107.13,298,107.13,291.41Zm15.37.07c0,2.61,0,5.22,0,7.83,0,1.63.38,2.6,2.27,2.53,3.87-.14,8,.18,10.3-3.75a13.17,13.17,0,0,0,.35-12.87c-1.64-3.38-7.55-5.61-11.48-4.05-3.1,1.24-.84,4.37-1.37,6.59A15.9,15.9,0,0,0,122.5,291.48Z" transform="translate(-0.4 -0.42)"/><path class="cls-3" d="M180.33,301.26c-2.75,0-5.49,0-8.24,0-.67,0-1.61-.32-1.86.68-.21.82.42,1.42,1,1.88,3.59,2.83,7.45,2.16,11.31.72,2.51-.95,8.09,2,8.72,4.59.18.77-.28,1.16-.78,1.51-7.25,5-15.19,5.37-23.23,2.79-6.69-2.14-10.86-6.82-11.65-14.09-.88-8.24,3.42-15.23,11-17.89,8.56-3,18.41-.24,22.43,6.27,2.2,3.57,2.55,7.45,2,11.53-.22,1.6-1,2.05-2.5,2C185.82,301.21,183.07,301.26,180.33,301.26Zm-6.68-6.37c.85-1.21,3.73,1.4,3.61-1.9-.06-1.94-1.14-3.69-3.48-3.65a3.68,3.68,0,0,0-3.82,3.81C169.89,295.71,172.18,294.24,173.65,294.89Z" transform="translate(-0.4 -0.42)"/><path class="cls-4" d="M252.46,314.67a22.8,22.8,0,0,1-9.94-1.76,10.89,10.89,0,0,1-5.85-5.5c-1.15-2.47-1.07-4,2.3-3.9a39.89,39.89,0,0,0,6-.47,2.74,2.74,0,0,1,3.11,1.32c1.67,2.6,4.4,2.45,7.06,2.05,1-.15,2-.61,2.12-1.78s-.76-1.78-1.8-2.1a15,15,0,0,0-2.15-.61c-1.85-.26-3.71-.45-5.57-.66-7-.78-10.53-3.57-10.82-8.65-.32-5.52,3.07-9.75,9.44-11.24,5.19-1.21,10.39-1.14,15.35,1.26a11.83,11.83,0,0,1,3.86,2.9c1.07,1.25,2.32,2.69,1.78,4.29s-2.38.83-3.65,1c-3.15.33-6.55,1.93-9.07-1.73-.4-.59-1.84-.57-2.82-.63-1.42-.09-3,.12-3.18,1.83s1.45,1.81,2.65,2.07c3.64.79,7.41.95,11,2.16,4.87,1.65,7.21,4.2,7.39,8.33.19,4.52-2.09,7.59-6,9.53A23.93,23.93,0,0,1,252.46,314.67Z" transform="translate(-0.4 -0.42)"/><path class="cls-3" d="M214.07,302.54c1.74-6.24,3.41-11.81,4.81-17.45.64-2.57,1.7-3.79,4.54-3.49a70.57,70.57,0,0,0,8.23.06c1.7,0,2.22.54,1.57,2.26q-5.35,14.13-10.57,28.32a2.12,2.12,0,0,1-2.49,1.64c-.37,0-.74,0-1.12,0-4.48-.06-9.81,1.36-13.21-.59s-3.54-7.87-5.15-12c-2.17-5.56-4.09-11.21-6.21-16.79-.79-2.08-.43-2.77,1.95-2.86,11.09-.37,11-.41,14.12,10.42C211.49,295.32,211.92,298.83,214.07,302.54Z" transform="translate(-0.4 -0.42)"/><path class="cls-5" d="M147.93,170.89c-6.8,0-10.79-3.73-10.81-10.12,0-6,4.19-10,10.62-10.11s11,4.07,11,10.14C158.86,167.1,154.8,170.87,147.93,170.89Z" transform="translate(-0.4 -0.42)"/><path class="cls-6" d="M141.4,104.22c0-4.7,2.32-7.47,6.44-7.56,3.87-.08,6.67,3,6.8,7.41.13,4.6-2.65,7.74-6.8,7.68S141.45,108.94,141.4,104.22Z" transform="translate(-0.4 -0.42)"/><path class="cls-7" d="M246.38,236.66c-3.9,1.93-5.09,1.33-5.12-2.6,0-4.12.08-8.25,0-12.36-.07-2.37.73-3.28,3.2-3.43,2.9-.19,5.79.26,8.72-.31,2.56-.49,4,1.41,4.39,3.65.81,4.7.52,9.48.25,14.2-.17,2.91-2.76,1.61-4.46,1.65-1.5-4.37,0-9-1.69-13.42V237.4c-1.53.19-3.11.8-4.41-.63V224h-.83Z" transform="translate(-0.4 -0.42)"/><path class="cls-8" d="M223.19,226.88a26.32,26.32,0,0,1,.41-4.3c.83-3.59,2.92-5,6.55-4.55.6.07,1.18.34,1.78.46,2,.42,4.58-1.29,5.95.8s.31,4.61.5,7c.22,2.63-.36,5.23,1.15,7.86,1.26,2.2-.72,4.43-3.2,3.66-2.18-.69-3.91-.27-6,.22-3,.72-5.29-.61-6.51-3.59C223,232.22,223.34,230,223.19,226.88Zm9.14.68c-.64-1,1.21-4-1.74-3.9-2.29.07-1.33,2.75-1.51,4.35a12.67,12.67,0,0,0,0,2.61c.08.95.49,1.68,1.58,1.71s1.55-.67,1.61-1.64S232.33,228.94,232.33,227.56Z" transform="translate(-0.4 -0.42)"/><path class="cls-9" d="M205.27,227.67c0-7.5,3.06-10.64,9.35-9.61,4.34.71,7.56,7.21,5.39,11-1,1.69-2.7.74-4.07,1.08-1.54.38-4.42-1-4.41,1,0,3,2.64,1.36,4.32,1.06a3,3,0,0,1,3.6,2c.5,1.46-.69,2.21-1.83,2.86-5.77,3.3-12-.1-12.34-6.72C205.24,229.42,205.27,228.55,205.27,227.67Z" transform="translate(-0.4 -0.42)"/><path class="cls-9" d="M191.58,228.21c0-1.62-.05-3.25,0-4.87.08-2.22.26-4.29-3.1-3.93-1.94.21-2-1.41-2-2.86s.15-2.87,2-2.9q5.81-.08,11.61,0c1.75,0,2.29,1.11,2.28,2.74s-.22,3.25-2.29,3c-2.8-.29-3,1.2-2.95,3.35q.17,5.23,0,10.49c-.06,1.89.95,4.39-2.7,4.47s-2.86-2.25-2.9-4.28C191.56,231.71,191.58,230,191.58,228.21Z" transform="translate(-0.4 -0.42)"/><path class="cls-10" d="M251.62,237.4V224c1.68,4.41.19,9.05,1.69,13.42Z" transform="translate(-0.4 -0.42)"/><path class="cls-11" d="M246.38,236.66V224h.83v12.75Z" transform="translate(-0.4 -0.42)"/><path class="cls-9" d="M122.5,291.48a15.9,15.9,0,0,1,0-3.72c.53-2.22-1.73-5.35,1.37-6.59,3.93-1.56,9.84.67,11.48,4.05a13.17,13.17,0,0,1-.35,12.87c-2.29,3.93-6.43,3.61-10.3,3.75-1.89.07-2.31-.9-2.27-2.53C122.55,296.7,122.5,294.09,122.5,291.48Z" transform="translate(-0.4 -0.42)"/><path class="cls-8" d="M173.65,294.89c-1.47-.65-3.76.82-3.69-1.74a3.68,3.68,0,0,1,3.82-3.81c2.34,0,3.42,1.71,3.48,3.65C177.38,296.29,174.5,293.68,173.65,294.89Z" transform="translate(-0.4 -0.42)"/><path class="cls-4" d="M232.33,227.56c0,1.38,0,2.26,0,3.13s-.52,1.67-1.61,1.64-1.5-.76-1.58-1.71a12.67,12.67,0,0,1,0-2.61c.18-1.6-.78-4.28,1.51-4.35C233.54,223.57,231.69,226.58,232.33,227.56Z" transform="translate(-0.4 -0.42)"/></g></g></svg>